<?xml version="1.0" encoding="UTF-8" standalone="no"?>
<!-- Created with Inkscape (http://www.inkscape.org/) -->

<svg
   xmlns:dc="http://purl.org/dc/elements/1.1/"
   xmlns:cc="http://creativecommons.org/ns#"
   xmlns:rdf="http://www.w3.org/1999/02/22-rdf-syntax-ns#"
   xmlns:svg="http://www.w3.org/2000/svg"
   xmlns="http://www.w3.org/2000/svg"
   xmlns:sodipodi="http://sodipodi.sourceforge.net/DTD/sodipodi-0.dtd"
   xmlns:inkscape="http://www.inkscape.org/namespaces/inkscape"
   version="1.1"
   id="svg29"
   xml:space="preserve"
   width="816.15997"
   height="1056.16"
   viewBox="0 0 816.15997 1056.16"
   sodipodi:docname="PlatesFont.svg"
   inkscape:version="0.92.1 r15371"
   inkscape:export-filename="/home/luis/Downloads/PlatesFont.svg.png"
   inkscape:export-xdpi="288.15909"
   inkscape:export-ydpi="288.15909"><metadata
     id="metadata35"><rdf:RDF><cc:Work
         rdf:about=""><dc:format>image/svg+xml</dc:format><dc:type
           rdf:resource="http://purl.org/dc/dcmitype/StillImage" /><dc:title /></cc:Work></rdf:RDF></metadata><defs
     id="defs33"><clipPath
       clipPathUnits="userSpaceOnUse"
       id="clipPath47"><path
         d="M 0,0 H 451.77 V 628.83 H 0 Z"
         id="path45"
         inkscape:connector-curvature="0" /></clipPath><clipPath
       clipPathUnits="userSpaceOnUse"
       id="clipPath4071"><path
         d="m 244.37,657.7 h 151.34 v 14.52 H 244.37 Z"
         id="path4069"
         inkscape:connector-curvature="0"
         style="clip-rule:evenodd" /></clipPath><clipPath
       clipPathUnits="userSpaceOnUse"
       id="clipPath4079"><path
         d="m 244.37,657.7 h 151.34 v 14.52 H 244.37 Z"
         id="path4077"
         inkscape:connector-curvature="0"
         style="clip-rule:evenodd" /></clipPath><clipPath
       clipPathUnits="userSpaceOnUse"
       id="clipPath4091"><path
         d="m 244.37,657.7 h 151.34 v 14.52 H 244.37 Z"
         id="path4089"
         inkscape:connector-curvature="0"
         style="clip-rule:evenodd" /></clipPath><clipPath
       clipPathUnits="userSpaceOnUse"
       id="clipPath4101"><path
         d="M 0,0 H 6.5883 V 8.969 H 0 Z"
         id="path4099"
         inkscape:connector-curvature="0" /></clipPath><clipPath
       clipPathUnits="userSpaceOnUse"
       id="clipPath4109"><path
         d="m 64.32,691.06 h 497.02 v 24.384 H 64.32 Z"
         id="path4107"
         inkscape:connector-curvature="0"
         style="clip-rule:evenodd" /></clipPath><clipPath
       clipPathUnits="userSpaceOnUse"
       id="clipPath4117"><path
         d="m 64.32,691.06 h 497.02 v 24.384 H 64.32 Z"
         id="path4115"
         inkscape:connector-curvature="0"
         style="clip-rule:evenodd" /></clipPath><clipPath
       clipPathUnits="userSpaceOnUse"
       id="clipPath4129"><path
         d="m 64.32,691.06 h 497.02 v 24.384 H 64.32 Z"
         id="path4127"
         inkscape:connector-curvature="0"
         style="clip-rule:evenodd" /></clipPath><clipPath
       clipPathUnits="userSpaceOnUse"
       id="clipPath4141"><path
         d="m 64.32,691.06 h 497.02 v 24.384 H 64.32 Z"
         id="path4139"
         inkscape:connector-curvature="0"
         style="clip-rule:evenodd" /></clipPath><clipPath
       clipPathUnits="userSpaceOnUse"
       id="clipPath4151"><path
         d="m 537.58,704.14 h 45 v 17.904 h -45 z"
         id="path4149"
         inkscape:connector-curvature="0"
         style="clip-rule:evenodd" /></clipPath><clipPath
       clipPathUnits="userSpaceOnUse"
       id="clipPath4159"><path
         d="m 537.58,704.14 h 45 v 17.904 h -45 z"
         id="path4157"
         inkscape:connector-curvature="0"
         style="clip-rule:evenodd" /></clipPath><clipPath
       clipPathUnits="userSpaceOnUse"
       id="clipPath4171"><path
         d="m 537.58,704.14 h 45 v 17.904 h -45 z"
         id="path4169"
         inkscape:connector-curvature="0"
         style="clip-rule:evenodd" /></clipPath><clipPath
       id="clipPath10237"
       clipPathUnits="userSpaceOnUse"><path
         inkscape:connector-curvature="0"
         id="path10235"
         d="M 0,0 H 481.89 V 729.48 H 0 Z" /></clipPath><clipPath
       id="clipPath14397"
       clipPathUnits="userSpaceOnUse"><path
         style="clip-rule:evenodd"
         inkscape:connector-curvature="0"
         id="path14395"
         d="m 258.77,729.72 h 151.34 v 14.52 H 258.77 Z" /></clipPath><clipPath
       id="clipPath14405"
       clipPathUnits="userSpaceOnUse"><path
         style="clip-rule:evenodd"
         inkscape:connector-curvature="0"
         id="path14403"
         d="m 258.77,729.72 h 151.34 v 14.52 H 258.77 Z" /></clipPath><clipPath
       id="clipPath14417"
       clipPathUnits="userSpaceOnUse"><path
         style="clip-rule:evenodd"
         inkscape:connector-curvature="0"
         id="path14415"
         d="m 258.77,729.72 h 151.34 v 14.52 H 258.77 Z" /></clipPath><clipPath
       id="clipPath14427"
       clipPathUnits="userSpaceOnUse"><path
         style="clip-rule:evenodd"
         inkscape:connector-curvature="0"
         id="path14425"
         d="m 536.5,703.18 h 45.12 v 17.904 H 536.5 Z" /></clipPath><clipPath
       id="clipPath14435"
       clipPathUnits="userSpaceOnUse"><path
         style="clip-rule:evenodd"
         inkscape:connector-curvature="0"
         id="path14433"
         d="m 536.5,703.18 h 45.12 v 17.904 H 536.5 Z" /></clipPath><clipPath
       id="clipPath25001"
       clipPathUnits="userSpaceOnUse"><path
         inkscape:connector-curvature="0"
         id="path24999"
         d="M 0,0 H 451.77 V 628.83 H 0 Z" /></clipPath><clipPath
       id="clipPath29025"
       clipPathUnits="userSpaceOnUse"><path
         style="clip-rule:evenodd"
         inkscape:connector-curvature="0"
         id="path29023"
         d="m 244.37,657.7 h 151.34 v 14.52 H 244.37 Z" /></clipPath><clipPath
       id="clipPath29033"
       clipPathUnits="userSpaceOnUse"><path
         style="clip-rule:evenodd"
         inkscape:connector-curvature="0"
         id="path29031"
         d="m 244.37,657.7 h 151.34 v 14.52 H 244.37 Z" /></clipPath><clipPath
       id="clipPath29045"
       clipPathUnits="userSpaceOnUse"><path
         style="clip-rule:evenodd"
         inkscape:connector-curvature="0"
         id="path29043"
         d="m 244.37,657.7 h 151.34 v 14.52 H 244.37 Z" /></clipPath><clipPath
       id="clipPath29055"
       clipPathUnits="userSpaceOnUse"><path
         inkscape:connector-curvature="0"
         id="path29053"
         d="M 0,0 H 6.5883 V 8.969 H 0 Z" /></clipPath><clipPath
       id="clipPath29063"
       clipPathUnits="userSpaceOnUse"><path
         style="clip-rule:evenodd"
         inkscape:connector-curvature="0"
         id="path29061"
         d="m 64.32,691.06 h 497.02 v 24.384 H 64.32 Z" /></clipPath><clipPath
       id="clipPath29071"
       clipPathUnits="userSpaceOnUse"><path
         style="clip-rule:evenodd"
         inkscape:connector-curvature="0"
         id="path29069"
         d="m 64.32,691.06 h 497.02 v 24.384 H 64.32 Z" /></clipPath><clipPath
       id="clipPath29083"
       clipPathUnits="userSpaceOnUse"><path
         style="clip-rule:evenodd"
         inkscape:connector-curvature="0"
         id="path29081"
         d="m 64.32,691.06 h 497.02 v 24.384 H 64.32 Z" /></clipPath><clipPath
       id="clipPath29095"
       clipPathUnits="userSpaceOnUse"><path
         style="clip-rule:evenodd"
         inkscape:connector-curvature="0"
         id="path29093"
         d="m 64.32,691.06 h 497.02 v 24.384 H 64.32 Z" /></clipPath><clipPath
       id="clipPath29105"
       clipPathUnits="userSpaceOnUse"><path
         style="clip-rule:evenodd"
         inkscape:connector-curvature="0"
         id="path29103"
         d="m 537.58,704.14 h 45 v 17.904 h -45 z" /></clipPath><clipPath
       id="clipPath29113"
       clipPathUnits="userSpaceOnUse"><path
         style="clip-rule:evenodd"
         inkscape:connector-curvature="0"
         id="path29111"
         d="m 537.58,704.14 h 45 v 17.904 h -45 z" /></clipPath><clipPath
       id="clipPath29125"
       clipPathUnits="userSpaceOnUse"><path
         style="clip-rule:evenodd"
         inkscape:connector-curvature="0"
         id="path29123"
         d="m 537.58,704.14 h 45 v 17.904 h -45 z" /></clipPath><clipPath
       id="clipPath39302"
       clipPathUnits="userSpaceOnUse"><path
         inkscape:connector-curvature="0"
         id="path39300"
         d="M 0,0 H 481.89 V 729.48 H 0 Z" /></clipPath><clipPath
       id="clipPath43462"
       clipPathUnits="userSpaceOnUse"><path
         style="clip-rule:evenodd"
         inkscape:connector-curvature="0"
         id="path43460"
         d="m 258.77,729.72 h 151.34 v 14.52 H 258.77 Z" /></clipPath><clipPath
       id="clipPath43470"
       clipPathUnits="userSpaceOnUse"><path
         style="clip-rule:evenodd"
         inkscape:connector-curvature="0"
         id="path43468"
         d="m 258.77,729.72 h 151.34 v 14.52 H 258.77 Z" /></clipPath><clipPath
       id="clipPath43482"
       clipPathUnits="userSpaceOnUse"><path
         style="clip-rule:evenodd"
         inkscape:connector-curvature="0"
         id="path43480"
         d="m 258.77,729.72 h 151.34 v 14.52 H 258.77 Z" /></clipPath><clipPath
       id="clipPath43492"
       clipPathUnits="userSpaceOnUse"><path
         style="clip-rule:evenodd"
         inkscape:connector-curvature="0"
         id="path43490"
         d="m 536.5,703.18 h 45.12 v 17.904 H 536.5 Z" /></clipPath><clipPath
       id="clipPath43500"
       clipPathUnits="userSpaceOnUse"><path
         style="clip-rule:evenodd"
         inkscape:connector-curvature="0"
         id="path43498"
         d="m 536.5,703.18 h 45.12 v 17.904 H 536.5 Z" /></clipPath></defs><sodipodi:namedview
     pagecolor="#ffffff"
     bordercolor="#666666"
     borderopacity="1"
     objecttolerance="10"
     gridtolerance="10"
     guidetolerance="10"
     inkscape:pageopacity="0"
     inkscape:pageshadow="2"
     inkscape:window-width="1440"
     inkscape:window-height="836"
     id="namedview31"
     showgrid="false"
     inkscape:snap-midpoints="true"
     inkscape:measure-start="0,0"
     inkscape:measure-end="0,0"
     inkscape:zoom="0.5"
     inkscape:cx="567.04732"
     inkscape:cy="474.42922"
     inkscape:window-x="0"
     inkscape:window-y="27"
     inkscape:window-maximized="1"
     inkscape:current-layer="g37"
     inkscape:snap-page="true" /><g
     id="g37"
     inkscape:groupmode="layer"
     inkscape:label="Ethan Frome"
     transform="matrix(1.3333333,0,0,-1.3333333,0,1056.16)"><g
       id="g4093"
       transform="matrix(0.12014,0,0,0.12014,85.16,698.31)"><g
         id="g4095"
         transform="scale(10.928,8.0277)"><g
           id="g4097"
           clip-path="url(#clipPath4101)" /></g></g><g
       id="g14421"
       transform="translate(405.98448,-11.921187)"><g
         id="g14423"
         clip-path="url(#clipPath14427)"><g
           id="g14429"><g
             id="g14431"
             clip-path="url(#clipPath14435)" /></g></g></g><path
       sodipodi:nodetypes="ccccccccccccccccccccccccccccccccccccccccccccccccccccccccccccccccccccccccccccccccccccccccccccccccccccccccccc"
       inkscape:connector-curvature="0"
       id="path25003"
       style="fill:#000000;stroke:#000000;stroke-width:0.25638601;stroke-linecap:butt;stroke-linejoin:round;stroke-miterlimit:10;stroke-dasharray:none;stroke-opacity:1"
       d="m 372.47213,516.28058 v 1.57546 0 0.25622 l -0.11978,0.12538 v 0.27257 l -0.27223,0.13083 -0.13612,0.13084 -0.11979,0.12539 -0.27223,0.13082 h -0.2559 v 0 h -3.53363 -0.26679 l -0.11978,0.12538 h -0.27224 l -0.13612,0.27259 -0.11978,0.13082 -0.13612,0.12538 v 0.26167 l -0.13611,0.26712 v 11.51339 l 1.18694,1.18296 h -0.26679 -0.11978 l -0.27224,-0.12539 -0.13612,-0.14719 -0.11978,-0.25621 -0.13612,-0.12539 v -0.26167 l -0.13611,-0.26711 1.18694,1.18296 h 10.46476 v 0 l 0.27224,0.13083 h 0.25589 l 0.13612,0.12537 0.2559,0.13083 0.13612,0.13084 0.13068,0.26712 v 0.13083 0.25622 0 1.57546 0 0.25622 0.27257 l -0.13068,0.12537 -0.13612,0.26167 -0.2559,0.12538 h -0.13612 l -0.25589,0.13083 h -0.27224 v 0 h -14.26518 v 0 h -0.2559 l -0.27224,-0.13083 h -0.11978 l -0.26679,-0.12538 -0.13612,-0.26167 -0.12523,-0.12537 v -0.27257 -0.25622 0 -39.4028 0 -0.25622 -0.27257 l 0.12523,-0.13084 0.13612,-0.12537 0.26679,-0.25622 h 0.11978 l 0.27224,-0.14719 h 0.2559 v 0 h 1.57898 -0.13612 0.2559 l 0.27224,0.14719 h 0.11978 l 0.26679,0.25622 0.13612,0.12537 0.11979,0.13084 v 0.27257 0.25622 0 17.66802 l 0.13611,0.26167 v 0.27257 l 0.13612,0.12537 0.11978,0.25622 0.13612,0.13083 h 0.27224 l 0.11978,0.13083 h 0.26679 3.53363 v 0 h 0.2559 l 0.27223,0.14174 0.11979,0.12539 0.13612,0.13083 0.27223,0.13083 v 0.25622 l 0.11978,0.14174 v 0.25621 0" /><path
       style="fill:#000000;stroke:#000000;stroke-width:0.25722092;stroke-linecap:butt;stroke-linejoin:round;stroke-miterlimit:10;stroke-dasharray:none;stroke-opacity:1"
       d="m 195.02433,536.82653 -0.12168,-0.12585 h -0.27048 l -0.12237,-0.13141 -0.27048,-0.12586 -0.1349,-0.1474 v -0.12586 l -0.12168,-0.25727 v -0.13072 l -3.95151,-39.40042 v -0.25657 l 0.13558,-0.27396 v -0.25658 l 0.27048,-0.13141 0.12169,-0.12585 0.13558,-0.14741 0.25727,-0.12585 h 0.27048 1.56934 0.27048 l 0.13559,0.12585 h 0.25727 l 0.13489,0.14741 0.12169,0.12585 0.13558,0.25727 v 0.13072 l 0.13559,0.27396 0.52706,6.16334 0.12237,0.26282 v 0.2677 l 0.13489,0.13141 0.13559,0.13142 0.25727,0.12586 0.13489,0.13141 h 0.25727 0.13489 4.99242 0.25727 0.27048 l 0.12168,-0.13141 0.13559,-0.12586 0.13489,-0.13142 0.13559,-0.13141 0.12168,-0.2677 v -0.26282 l 0.66264,-6.16334 v -0.27396 l 0.13559,-0.13072 0.12168,-0.25727 0.13559,-0.12585 0.13489,-0.14741 h 0.12168 l 0.27118,-0.12585 h 0.25657 1.58325 0.12168 l 0.27048,0.12585 0.25727,0.14741 0.13559,0.12585 0.13489,0.13141 0.12168,0.25658 v 0.27396 0.25657 l -3.80202,39.40042 v 0.13072 l -0.13489,0.25727 -0.13559,0.12586 -0.12168,0.1474 -0.13489,0.12586 -0.25727,0.13141 h -0.13559 l -0.27048,0.12585 z m 2.89463,-8.66301 h 0.25727 0.13559 0.27048 l 0.12168,-0.12585 h 0.27048 l 0.12168,-0.14254 0.13559,-0.26214 0.13489,-0.12586 v -0.13141 l 0.13559,-0.25727 1.82661,-18.52894 v -0.25726 l -0.12168,-0.26284 -0.13559,-0.27326 -0.13489,-0.12586 -0.12169,-0.13141 -0.27117,-0.12585 -0.12168,-0.13072 h -0.27048 -3.80202 -0.26979 l -0.25727,0.13072 -0.13559,0.12585 -0.25726,0.13141 -0.1349,0.12586 -0.13489,0.27326 v 0.26284 0.25726 l 1.83913,18.52894 v 0.25727 l 0.13559,0.13141 0.13489,0.12586 0.12238,0.26214 0.13489,0.14254 h 0.13558 z"
       id="path25457"
       inkscape:connector-curvature="0" /><path
       style="fill:#000000;stroke:#000000;stroke-width:0.25718686;stroke-linecap:butt;stroke-linejoin:round;stroke-miterlimit:10;stroke-dasharray:none;stroke-opacity:1"
       d="m 225.07106,536.82655 -0.1314,-0.14252 -0.12583,-0.1307 -0.13071,-0.1314 -0.13696,-0.25724 -0.12514,-0.27322 v -0.12584 -39.5259 -0.25724 l 0.12514,-0.25653 0.13696,-0.14253 0.13071,-0.2621 0.12583,-0.12584 h 0.1314 l 0.25654,-0.1314 h 0.27323 6.69575 l 1.44747,0.1314 1.44748,0.38794 1.17424,0.53046 1.17981,0.78769 1.05396,0.9184 0.7863,1.04494 0.66117,1.31745 0.52976,1.30704 0.25654,1.44955 0.13627,1.44886 0.1314,1.30147 v 1.44886 1.44955 l -0.1314,1.44887 -0.13627,1.43287 -0.25654,1.32302 -0.27322,0.53045 -0.12027,0.51448 -0.13627,0.53046 -0.26766,0.51377 -0.25654,0.40462 -0.3935,0.51448 -0.25654,0.40462 -0.40949,0.38794 -0.12028,0.26766 -0.13696,0.1314 v 0.25723 0.1314 0.27322 0.12584 l 0.13696,0.25724 0.12028,0.1307 0.27253,0.27392 0.13696,0.25654 0.25654,0.25724 0.13626,0.13139 0.12027,0.27323 0.13697,0.25724 0.1307,0.25653 0.12584,0.39976 0.66046,1.30704 0.3935,1.58025 0.26767,1.4433 v 1.58026 1.44955 l -0.26767,1.56357 -0.3935,1.44956 -0.66046,1.44329 -0.51378,1.0505 -0.80229,0.91839 -0.78144,0.7877 -0.92327,0.787 -1.03728,0.53046 -1.05953,0.38864 -1.19093,0.27322 h -1.17425 -6.69575 -0.27323 z m 4.21101,-3.81681 h 0.25654 2.75797 l 0.66117,-0.12584 0.51308,-0.13139 0.66672,-0.1314 0.52421,-0.39906 0.52977,-0.25724 0.3928,-0.53046 0.3935,-0.51934 0.25654,-0.53045 0.5242,-1.04424 0.27323,-1.06093 0.12028,-1.04979 0.13626,-1.04493 -0.13626,-1.19163 -0.12028,-1.04493 -0.27323,-1.04979 -0.5242,-1.04424 -0.25654,-0.53046 -0.3935,-0.53046 -0.3928,-0.38863 -0.52977,-0.38794 -0.52421,-0.27323 -0.66672,-0.25723 -0.51308,-0.12584 h -0.66117 -2.75797 -0.25654 -0.27322 l -0.12028,0.12584 -0.27322,0.1314 -0.13071,0.25653 -0.12584,0.14253 v 0.25723 0.26211 11.29818 0.25653 0.13141 l 0.12584,0.25723 0.13071,0.14183 0.27322,0.1314 0.12028,0.13139 z m 0,-17.59766 h 0.25654 2.75797 l 0.78631,-0.12584 0.79743,-0.13139 0.65004,-0.27323 0.66117,-0.38238 0.52976,-0.53046 0.38794,-0.64587 0.39281,-0.66116 0.25653,-0.66186 0.13696,-1.17563 0.25655,-1.18676 v -1.30703 l 0.13626,-1.19232 -0.13626,-1.17563 v -1.18676 l -0.25655,-1.17564 -0.13696,-1.18119 -0.25653,-0.787 -0.39281,-0.65629 -0.38794,-0.53047 -0.52976,-0.51933 -0.66117,-0.39976 -0.65004,-0.25654 -0.79743,-0.27393 h -0.78631 -2.75797 -0.25654 -0.27322 l -0.12028,0.14253 -0.27322,0.1314 -0.13071,0.25654 -0.12584,0.12583 v 0.27393 0.25653 14.05408 0.26279 0.25654 l 0.12584,0.12584 0.13071,0.14739 0.27322,0.12584 0.12028,0.13139 z"
       id="path25461"
       inkscape:connector-curvature="0" /><g
       id="g53940"
       transform="matrix(0.63463008,0,0,0.63463008,121.09776,53.076173)"><path
         d="m 243.54676,752.5669 -0.61772,2.07017 -1.02094,1.84683 -1.03811,1.64926 -1.44133,1.4431 -1.44991,1.03079 -1.65582,0.83322 -1.84456,0.60989 -1.85315,0.20615 h -1.8703 l -1.84456,-0.41231 -1.85314,-0.40373 -1.65582,-0.83322 -1.44134,-1.23694 -1.44991,-1.44311 -1.0381,-1.64067 -1.02095,-2.07876 -1.23542,-6.16755 -1.03811,-6.19332 -0.61771,-6.20191 -0.21449,-6.39089 0.21449,-6.17614 0.61771,-6.19332 0.82362,-6.19332 1.44991,-6.17614 v 0 l 1.02095,-2.07017 1.0381,-1.64926 1.44991,-1.43452 1.44134,-1.24553 1.65582,-0.83322 1.85314,-0.6013 1.84456,-0.23192 h 1.8703 l 1.85315,0.23192 1.84456,0.6013 1.65582,0.63565 1.44991,1.21118 1.44133,1.24553 1.03811,1.66644 1.02094,1.84683 0.61772,2.07017 v 0 0.40373 l -0.18875,0.40372 v 0.4295 l -0.21448,0.40372 -0.42039,0.20616 -0.19733,0.20616 -0.42039,0.19757 h -0.40323 v 0 h -2.67676 v 0 h -0.21448 -0.21449 l -0.40323,-0.19757 -0.21448,-0.20616 -0.21449,-0.20616 -0.18874,-0.19757 -0.21449,-0.20615 v -0.4295 l -0.40323,-0.80745 -0.42039,-0.83322 -0.61771,-0.83322 -0.61771,-0.60988 -0.61772,-0.40373 -0.82362,-0.42949 -0.8322,-0.20616 -1.02094,-0.19757 h -0.82362 l -0.8322,0.19757 -0.8322,0.20616 -0.82362,0.42949 -0.61771,0.60988 -0.61771,0.62707 -0.61772,0.81604 -0.42039,1.03079 -1.23543,5.56625 -1.02094,5.7896 -0.63487,5.76383 -0.18875,5.77241 0.18875,5.98717 0.63487,5.77241 1.02094,5.58344 1.23543,5.76382 0.42039,1.03938 0.61772,0.60989 0.61771,0.83322 0.61771,0.40372 0.82362,0.40373 0.8322,0.22334 0.8322,0.20615 h 0.82362 1.02094 l 0.8322,-0.20615 0.82362,-0.42091 0.61772,-0.60988 0.61771,-0.4295 0.61771,-0.80745 0.42039,-0.83322 0.40323,-1.03938 v -0.20616 l 0.21449,-0.19756 0.18874,-0.40373 0.21449,-0.20616 h 0.21448 l 0.40323,-0.22333 h 0.21449 0.21448 v 0 h 2.67676 v 0 h 0.40323 0.42039 l 0.19733,0.22333 0.42039,0.40373 0.21448,0.20616 v 0.40372 l 0.18875,0.4295 v 0.40372 0"
         style="fill:#000000;stroke:#000000;stroke-width:0.40399286;stroke-linecap:butt;stroke-linejoin:round;stroke-miterlimit:10;stroke-dasharray:none;stroke-opacity:1"
         id="path25761"
         inkscape:connector-curvature="0"
         sodipodi:nodetypes="cccccccccccccccccccccccccccccccccccccccccccccccccccccccccccccccccccccccccccccccccccccccccccccccccccccccccccccccccccccccccc" /></g><path
       style="fill:#000000;stroke:#000000;stroke-width:0.256419;stroke-linecap:butt;stroke-linejoin:round;stroke-miterlimit:10;stroke-dasharray:none;stroke-opacity:1"
       d="m 294.46769,536.82692 -0.25646,-0.12545 h -0.13586 l -0.13586,-0.1414 -0.25646,-0.26202 v -0.12545 l -0.13585,-0.25647 v -0.27242 -39.40789 -0.25647 l 0.13585,-0.25576 v -0.14211 l 0.25646,-0.26133 0.13586,-0.12545 0.13586,-0.131 h 0.25646 0.26686 7.20396 l 1.30728,0.131 1.3066,0.38678 1.17629,0.52889 1.18736,0.78534 0.91428,0.91566 0.6481,1.17212 0.52818,1.18322 0.38679,1.44522 0.39233,3.53301 0.27171,3.53301 0.11991,3.65776 0.13656,3.54409 -0.13656,3.66401 -0.11991,3.53301 -0.27171,3.67441 -0.39233,3.52746 -0.38679,1.30313 -0.52818,1.31422 -0.6481,1.17212 -0.91428,0.9323 -1.18736,0.7687 -1.17629,0.52888 -1.3066,0.40342 -1.30728,0.12546 h -7.20396 z m 3.66471,-3.93088 h 0.27241 0.25578 3.27792 0.6481 l 0.65918,-0.12545 0.52818,-0.40342 0.51156,-0.38747 0.40272,-0.39787 0.39233,-0.51225 0.25577,-0.65989 0.13656,-0.65989 0.39163,-3.40198 0.25646,-3.53301 0.26685,-3.40201 v -3.53301 -3.40199 l -0.26685,-3.54411 -0.25646,-3.40199 -0.39163,-3.53301 v 0.131 l -0.13656,-0.65988 -0.25577,-0.64325 -0.39233,-0.52888 -0.40272,-0.52887 -0.51156,-0.25647 -0.52818,-0.38678 -0.65918,-0.1421 h -0.6481 -3.27792 -0.25578 -0.27241 l -0.131,0.1421 -0.25578,0.13101 -0.13586,0.25577 -0.12546,0.12547 v 0.2731 0.25577 31.68823 0.12477 0.26202 l 0.12546,0.12545 0.13586,0.27241 0.25578,0.13101 z"
       id="path26025"
       inkscape:connector-curvature="0" /><path
       sodipodi:nodetypes="cccccccccccccccccccccccccccccccccccccccccccccccccccccccccccccccccccccccccccccccccccccccccccccccccccccccccccccccccccccccccccc"
       inkscape:connector-curvature="0"
       id="path26261"
       style="fill:#000000;stroke:#000000;stroke-width:0.25641927;stroke-linecap:butt;stroke-linejoin:round;stroke-miterlimit:10;stroke-dasharray:none;stroke-opacity:1"
       d="m 333.04196,498.97833 h -0.26955 l -0.25648,0.13085 -0.1345,0.14176 -0.12144,0.25624 -0.13504,0.13086 v 0.25625 0.2726 13.73934 0.27261 0.25625 l 0.13504,0.13085 0.12144,0.1254 0.1345,0.13085 0.25648,0.13085 0.26955,0.14175 h 0.13504 3.53355 v 0 h 0.25647 l 0.25594,0.12541 h 0.13505 l 0.26954,0.26169 0.12144,0.1254 v 0.13086 l 0.13504,0.2726 v 0.25625 0 1.57021 0 0.25625 l -0.13504,0.13085 v 0.27261 l -0.12144,0.13085 -0.26954,0.1254 -0.13505,0.13084 -0.25594,0.1254 h -0.25647 v 0 h -3.60107 -0.33707 l -0.25648,0.13086 -0.1345,0.14176 -0.12144,0.25624 -0.13504,0.13085 v 0.25626 0.2726 11.52577 0.25625 0.25625 l 0.13504,0.13086 0.12144,0.12539 0.1345,0.27261 h 0.25648 l 0.26955,0.13085 h 0.13504 9.42768 v 0 h 0.25647 l 0.1345,0.1254 0.25649,0.13085 0.1345,0.13085 0.13505,0.14176 0.12143,0.12539 0.13504,0.26171 v 0.25625 0 1.57021 0 0.2726 l -0.13504,0.13085 -0.12143,0.25625 -0.13505,0.13086 -0.1345,0.12539 -0.25649,0.13085 -0.1345,0.14176 h -0.25647 v 0 h -13.23131 v 0 h -0.25594 l -0.27008,-0.14176 -0.13451,-0.13085 -0.25648,-0.12539 -0.13504,-0.13086 -0.12089,-0.25625 v -0.13085 -0.2726 0 -39.40247 0 -0.2617 -0.26715 l 0.12089,-0.13086 0.13504,-0.13085 0.25648,-0.25624 h 0.13451 l 0.27008,-0.1254 h 0.25594 v 0 h 14.26975 v 0 h 0.26954 l 0.25649,0.1254 h 0.13504 l 0.25594,0.25624 0.13505,0.13085 0.13504,0.13086 v 0.26715 0.2617 0 1.57021 0 0.25626 0.13085 l -0.13504,0.2726 -0.13505,0.1254 -0.25594,0.13085 -0.13504,0.13085 -0.25649,0.1254 h -0.26954 v 0 H 333.177 Z" /><path
       sodipodi:nodetypes="ccccccccccccccccccccccccccccccccccccccccccccccccccccccccccccccccccccccccccccccccccccccccccccccccccccccccccccccccccccccccccccccc"
       inkscape:connector-curvature="0"
       id="path26473"
       style="fill:#000000;stroke:#000000;stroke-width:0.25887126;stroke-linecap:butt;stroke-linejoin:round;stroke-miterlimit:10;stroke-dasharray:none;stroke-opacity:1"
       d="m 206.82141,467.4786 v 2.64205 0 0.25869 l -0.13743,0.2587 -0.13744,0.14312 -0.12094,0.2587 -0.13745,0.1321 -0.26937,0.1321 h -0.12644 -0.26938 v 0 h -1.58328 v 0 h -0.26938 -0.12094 l -0.27488,-0.1321 -0.12095,-0.1321 -0.13743,-0.2587 -0.13744,-0.14312 v -0.2587 l -0.13194,-0.25869 v 0 -2.64205 -16.13847 -0.26421 -0.1266 l -0.12644,-0.2587 -0.13744,-0.13209 -0.25838,-0.14312 -0.13194,-0.1321 -0.27487,-0.1266 h -0.25839 -6.48155 -0.25839 l -0.27487,0.1266 -0.12094,0.1321 -0.13744,0.14312 -0.25838,0.13209 v 0.2587 l -0.13195,0.1266 v 0.26421 18.78052 0 0.25869 l -0.13743,0.2587 -0.12094,0.14312 -0.13744,0.2587 -0.13744,0.1321 -0.13744,0.1321 h -0.25838 -0.25838 v 0 h -1.59428 v 0 h -0.13194 -0.26388 l -0.26938,-0.1321 -0.12095,-0.1321 -0.13743,-0.2587 -0.13744,-0.14312 v -0.2587 l -0.12094,-0.25869 v 0 -39.39395 0 l 0.12094,-0.26421 v -0.12659 l 0.13744,-0.27522 0.13743,-0.1321 0.12095,-0.12659 0.26938,-0.13211 h 0.26388 l 0.13194,-0.1266 v 0 h 1.59428 v 0 l 0.25838,0.1266 h 0.25838 l 0.13744,0.13211 0.13744,0.12659 0.13744,0.1321 0.12094,0.27522 0.13743,0.12659 v 0.26421 0 14.40463 0.2587 l 0.13195,0.14311 v 0.26421 l 0.25838,0.1266 0.13744,0.13209 0.12094,0.12659 0.27487,0.14863 h 0.25839 6.48155 0.25839 l 0.27487,-0.14863 0.13194,-0.12659 0.25838,-0.13209 0.13744,-0.1266 0.12644,-0.26421 v -0.14311 -0.2587 -14.40463 0 l 0.13194,-0.26421 v -0.12659 l 0.13744,-0.27522 0.13743,-0.1321 0.12095,-0.12659 0.27488,-0.13211 h 0.12094 l 0.26938,-0.1266 v 0 h 1.58328 v 0 l 0.26938,0.1266 h 0.12644 l 0.26937,0.13211 0.13745,0.12659 0.12094,0.1321 0.13744,0.27522 0.13743,0.12659 v 0.26421 0 36.7519" /><path
       sodipodi:nodetypes="cccccccccccccccccccccccccccccccccccccccccccccccccccccccccccccccccccccccccc"
       inkscape:connector-curvature="0"
       id="path26891"
       style="fill:#000000;stroke:#000000;stroke-width:0.25562322;stroke-linecap:butt;stroke-linejoin:round;stroke-miterlimit:10;stroke-dasharray:none;stroke-opacity:1"
       d="m 229.08003,435.15621 0.52439,-0.65765 0.52439,-0.39677 0.64546,-0.38589 0.65902,-0.25546 0.77953,-0.14131 h 0.65902 l 0.77954,0.14131 0.65902,0.25546 0.64546,0.25545 0.65902,0.4022 0.38977,0.51091 0.52439,0.65766 0.25514,0.65223 0.26926,0.78809 v 0.91312 0 32.24155 l 0.12106,0.25546 v 0.25545 l 0.13408,0.13045 0.13463,0.26632 0.12105,0.13045 0.26872,0.13045 h 0.25567 0.13463 1.55961 0.26872 0.25568 l 0.13408,-0.13045 0.25569,-0.13045 0.13463,-0.26632 0.13408,-0.13045 v -0.25545 -0.25546 -32.24155 -0.91312 l -0.13408,-0.78809 -0.13463,-0.65223 -0.25569,-0.78267 -0.52438,-1.29901 -0.91417,-1.05443 -0.91417,-1.04356 -1.03521,-0.65222 -1.31805,-0.65766 -1.30393,-0.3859 -1.30447,-0.12501 h -1.30393 l -1.30448,0.12501 -1.30393,0.52721 -1.30447,0.64136 -1.0488,0.91311 -0.52439,0.52722 -0.38977,0.52722 -0.5244,0.65765 -0.38977,0.7718 v 0.26632 l -0.12105,0.13045 0.12105,0.25545 v 0.27175 l 0.13464,0.13045 0.13408,0.25546 0.12105,0.125 0.26927,0.13045 1.43855,0.65766 0.12106,0.125 h 0.26871 0.25568 l 0.13409,-0.125 h 0.25568 l 0.13463,-0.13044 0.13408,-0.25546 0.12106,-0.13045 z" /><path
       sodipodi:nodetypes="ccccccccccccccccccccccccccccccccccccccccccccccccccccccccccccccccccccccccccccccccccccccccccccccccccccccccccccccccccccc"
       inkscape:connector-curvature="0"
       id="path27201"
       style="fill:#000000;stroke:#000000;stroke-width:0.25641924;stroke-linecap:butt;stroke-linejoin:round;stroke-miterlimit:10;stroke-dasharray:none;stroke-opacity:1"
       d="m 272.88829,429.54206 -0.27227,0.13085 h -0.11979 -0.13615 l -0.26682,0.1254 -0.12525,0.13085 -0.13069,0.13085 v 0.26716 l -0.13613,0.13085 -4.71029,17.80116 v 0 l -0.1307,0.25625 -0.13613,0.14176 -0.1198,0.13085 h -0.13614 -0.27227 l -0.11979,-0.13085 -0.13615,-0.14176 -0.13068,-0.1254 v 0 l -2.48311,-7.33855 v 0 -0.1254 h -0.13615 v -0.13085 0 0 -0.13085 0 0 0 -9.95012 -0.12539 l -0.13612,-0.2617 v -0.26716 l -0.1198,-0.13085 -0.27229,-0.13085 -0.11979,-0.1254 h -0.26682 l -0.25594,-0.13085 h -1.57917 l -0.12525,0.13085 h -0.26683 l -0.25593,0.1254 -0.13614,0.13085 -0.13612,0.13085 -0.1198,0.26716 v 0.2617 l -0.13613,0.12539 v 39.40791 l 0.13613,0.27261 v 0.1254 l 0.1198,0.25625 0.13612,0.13085 0.13614,0.13086 0.25593,0.14175 h 0.26683 l 0.12525,0.12539 h 1.57917 l 0.25594,-0.12539 h 0.26682 l 0.11979,-0.14175 0.27229,-0.13086 0.1198,-0.13085 v -0.25625 l 0.13612,-0.1254 v -0.27261 -13.73934 0 -0.26169 l 0.13615,-0.14176 0.13613,-0.1254 0.25593,-0.13084 h 0.13068 l 0.25595,0.13084 0.13614,0.1254 0.13613,0.14176 v 0 l 4.97711,14.39904 0.11981,0.13085 0.13614,0.1254 v 0.13085 l 0.13613,0.13086 0.25594,0.14175 h 0.13613 l 0.1198,0.12539 h 0.26682 1.56829 l 0.26682,-0.12539 h 0.25594 l 0.27227,-0.27261 0.11981,-0.13085 0.13613,-0.25625 0.13614,-0.27261 v -0.25625 -0.25624 L 268.826,457.16794 v 0 -0.13085 0 l -0.13069,-0.14175 v -0.13085 0 -0.1254 l 0.13069,-0.13086 v 0 0 l 6.81223,-25.39051 v -0.40346 -0.25624 l -0.13613,-0.13085 -0.13069,-0.26716 -0.13614,-0.2617 -0.25593,-0.1254 h -0.25594 l -0.27227,-0.13085 z" /><path
       sodipodi:nodetypes="ccccccccccccccccccccccccccccccccccccccccccccccccccccccccc"
       inkscape:connector-curvature="0"
       id="path27355"
       style="fill:#000000;stroke:#000000;stroke-width:0.25799257;stroke-linecap:butt;stroke-linejoin:round;stroke-miterlimit:10;stroke-dasharray:none;stroke-opacity:1"
       d="m 294.64346,471.30451 h -0.12601 -0.26847 l -0.2575,-0.14263 -0.13698,-0.13166 -0.13696,-0.13166 -0.12054,-0.25782 v -0.27428 -0.12617 -39.51805 -0.25781 -0.26331 l 0.12054,-0.14263 0.13696,-0.25781 0.13698,-0.13166 0.2575,-0.12617 h 0.26847 0.12601 14.49153 0.13696 0.26847 l 0.25751,0.12617 0.13698,0.13166 0.12052,0.25781 0.13698,0.14263 v 0.26331 l 0.13697,0.25781 v 1.45368 l -0.13697,0.25783 v 0.27428 l -0.13698,0.12616 -0.12052,0.26332 -0.13698,0.12617 -0.25751,0.13166 h -0.26847 -0.13696 -10.53033 v 0 l -0.27394,0.14261 h -0.12052 l -0.26847,0.13166 -0.13697,0.12617 -0.12053,0.13164 -0.13698,0.25782 -0.13697,0.13166 v 0.26879 0 35.6946 0.12617 l -0.12054,0.27428 v 0.25782 l -0.13696,0.13166 -0.27395,0.13166 -0.12053,0.14263 h -0.26846 -0.25751 z" /><path
       sodipodi:nodetypes="ccccccccccccccccccccccccccccccccccccccccccccccccccccccccccccccccccccccccccccccccccccccccccccccccccccccccccccccccccccccccccccccc"
       inkscape:connector-curvature="0"
       id="path27641"
       style="fill:#000000;stroke:#000000;stroke-width:0.25171617;stroke-linecap:butt;stroke-linejoin:round;stroke-miterlimit:10;stroke-dasharray:none;stroke-opacity:1"
       d="m 332.10269,430.69041 v 0 l -0.12829,-0.25691 v -0.25155 l -0.12295,-0.12309 -0.12829,-0.14452 -0.13365,-0.25155 h -0.25123 L 331.071,429.5397 h -0.11761 v 0 h -1.68384 v 0 h -0.11761 l -0.26727,0.12309 h -0.25124 l -0.1283,0.25155 -0.12295,0.14452 -0.12829,0.12309 -0.13363,0.25155 v 0.25691 0 39.32736 0 0.26761 l 0.13363,0.25155 0.12829,0.25155 0.12295,0.12846 0.1283,0.13915 0.25124,0.1231 h 0.26727 l 0.11761,0.12845 v 0 h 1.93509 v 0 l 0.13364,-0.12845 h 0.25123 l 0.13365,-0.1231 h 0.12829 l 0.12295,-0.13915 0.12829,-0.12846 0.13364,-0.25155 v -0.12845 0 l 3.72051,-13.62649 v -0.25156 l 0.26726,-0.12844 0.11761,-0.12845 h 0.13364 0.26193 l 0.12295,0.12845 0.12829,0.12844 0.13364,0.25156 3.6029,13.62649 v 0 0.12845 l 0.11761,0.25155 0.13364,0.12846 0.13363,0.13915 h 0.1176 l 0.26194,0.1231 h 0.13364 l 0.25124,0.12845 v 0 h 1.80145 v 0 l 0.25123,-0.12845 h 0.26729 l 0.11759,-0.1231 0.13365,-0.13915 0.26193,-0.12846 v -0.25155 l 0.12294,-0.25155 v -0.26761 0 -39.32736 0 -0.25691 l -0.12294,-0.25155 v -0.12309 l -0.26193,-0.14452 -0.13365,-0.25155 h -0.11759 l -0.26729,-0.12309 h -0.25123 v 0 h -1.55021 v 0 h -0.25124 l -0.25124,0.12309 h -0.13364 l -0.26194,0.25155 -0.1176,0.14452 -0.13363,0.12309 v 0.25155 0.25691 0 21.082 l -0.13364,0.25153 v 0.12311 l -0.25125,0.14451 -0.13364,0.1231 h -0.25124 l -0.13363,-0.1231 -0.1283,-0.14451 -0.12295,-0.25155 -2.6995,-10.14761 v 0 l -0.13364,-0.26761 -0.12829,-0.1231 h -0.12295 l -0.26193,-0.12845 -0.13364,0.12845 h -0.11761 l -0.26726,0.1231 v 0.26761 0 l -2.81711,10.14761 v 0.25155 l -0.13365,0.14451 -0.25124,0.1231 h -0.13364 l -0.25124,-0.1231 -0.13364,-0.14451 -0.13364,-0.12311 v -0.25153 -21.082" /><path
       sodipodi:nodetypes="ccccccccccccccccccccccccccccccccccccccccccccccccccccccccccccccccccccccccccccccccccccccccccccccccccccccccccc"
       inkscape:connector-curvature="0"
       id="path27643"
       style="fill:#000000;stroke:#000000;stroke-width:0.25018653;stroke-linecap:butt;stroke-linejoin:round;stroke-miterlimit:10;stroke-dasharray:none;stroke-opacity:1"
       d="m 379.35028,430.68266 v 0 -0.25003 -0.26597 l -0.11795,-0.12235 -0.13177,-0.25535 -0.25024,-0.12234 -0.13123,-0.12768 h -0.25025 -0.26299 v 0 h -1.92174 v 0 h -0.11795 -0.13176 l -0.25025,0.12768 -0.13123,0.12234 h -0.13177 l -0.11847,0.25535 -0.13177,0.12235 v 0.13831 0 l -7.54031,24.651 -0.13176,0.12767 -0.11795,0.12767 -0.26352,0.12235 h -0.13177 l -0.24972,-0.12235 -0.13176,-0.12767 -0.11849,-0.12767 v -0.25002 -24.02329 0 -0.25003 l -0.13122,-0.26597 -0.13177,-0.12235 -0.13176,-0.25535 -0.11849,-0.12234 -0.26299,-0.12768 h -0.25025 -0.13123 v 0 h -1.65821 v 0 h -0.25024 -0.13123 l -0.26353,0.12768 -0.11849,0.12234 -0.13123,0.25535 -0.13176,0.12235 -0.11849,0.26597 v 0.25003 0 39.48203 0 0.25002 l 0.11849,0.25002 0.13176,0.12767 0.13123,0.26599 0.11849,0.12234 0.26353,0.12767 h 0.13123 0.25024 v 0 h 1.9212 v 0 h 0.25025 0.13123 l 0.11849,-0.12767 h 0.13176 l 0.26299,-0.12234 v -0.13831 l 0.11849,-0.25535 0.13176,-0.12235 v 0 l 7.54031,-24.52865 0.13176,-0.25002 0.11848,-0.13831 0.13124,-0.12768 h 0.25024 l 0.13177,0.12768 0.13123,0.13831 0.13177,0.12767 0.11847,0.25001 v 24.0233 0 0.25002 0.25002 l 0.13177,0.12767 0.13123,0.26599 0.25025,0.12234 0.13176,0.12767 h 0.24971 0.263 v 0 h 1.52698 v 0 h 0.26299 0.25025 l 0.13123,-0.12767 0.25024,-0.12234 0.13177,-0.26599 0.11795,-0.12767 v -0.25002 -0.25002 0 -39.48203" /><path
       inkscape:connector-curvature="0"
       id="path27889"
       style="fill:#000000;stroke:#000000;stroke-width:0.25728729;stroke-linecap:butt;stroke-linejoin:round;stroke-miterlimit:10;stroke-dasharray:none;stroke-opacity:1"
       d="m 399.30306,500.44171 0.2732,-0.78777 0.38793,-0.66194 0.26227,-0.64553 0.38794,-0.53064 1.05998,-0.91906 1.05453,-0.78776 1.17472,-0.53065 1.19114,-0.38841 1.31132,-0.12582 1.18019,0.12582 1.31133,0.25712 1.1802,0.53065 1.05452,0.64552 0.91792,0.79324 0.78681,1.06129 0.66112,1.17617 0.2568,0.65647 0.13659,0.79324 0.1366,0.78775 v 0.78777 12.74098 0.13128 l -0.1366,0.25712 v 0.27353 l -0.13659,0.12582 -0.2568,0.1313 -0.13114,0.12582 h -0.26225 l -0.26773,0.13129 h -3.80285 l -0.1366,-0.13129 h -0.25681 l -0.26772,-0.12582 -0.12567,-0.1313 -0.13114,-0.12582 -0.13659,-0.27353 v -0.25712 -0.13128 -1.581 -0.25711 -0.27355 l 0.13659,-0.12581 0.13114,-0.25712 0.12567,-0.1313 h 0.26772 l 0.25681,-0.1313 h 0.1366 0.1202 v 0 h 0.1366 l 0.27319,-0.14221 h 0.1202 l 0.1366,-0.12584 0.13113,-0.26258 0.12568,-0.12582 v -0.13129 l 0.13112,-0.27355 v 0 -8.9225 0 l -0.13112,-0.78777 -0.12568,-0.66194 -0.38793,-0.53064 -0.40979,-0.51424 -0.3934,-0.40482 -0.5136,-0.38294 -0.52453,-0.27353 -0.6666,-0.13129 h -0.52453 -0.65021 l -0.66658,0.27353 -0.52454,0.13129 -0.5136,0.38294 -0.40979,0.53065 -0.38793,0.53064 -0.25681,0.651 v 0 l -0.78678,3.6817 -0.66114,3.54493 -0.26226,3.67623 -0.13113,3.55588 0.13113,3.67075 0.26226,3.67623 0.66114,3.55588 0.78678,3.54493 0.25681,0.66193 0.26773,0.51423 0.39341,0.39936 0.39338,0.38842 0.52454,0.25711 0.52999,0.14771 0.5136,0.12582 0.66112,0.1313 0.53,-0.1313 0.53,-0.12582 0.52453,-0.27353 0.39339,-0.25712 0.51361,-0.38841 0.40979,-0.40482 0.2568,-0.53065 0.25681,-0.64552 v -0.14224 l 0.13112,-0.25712 0.13661,-0.13129 0.13659,-0.12582 h 0.1202 l 0.2732,-0.1313 h 0.1202 0.27319 l 1.56814,0.1313 h 0.26773 l 0.26225,0.12582 0.13114,0.13129 0.13659,0.12583 0.12021,0.27353 0.13659,0.25711 v 0.26259 0.27353 l -0.52453,1.302 -0.52998,1.19258 -0.78681,1.04488 -1.05452,0.79324 -1.0436,0.65646 -1.05453,0.51971 -1.17472,0.25711 h -1.19112 l -1.3168,-0.13129 -1.17472,-0.25712 -1.05454,-0.38841 -1.05451,-0.65646 -0.90701,-0.91907 -0.79773,-0.91905 -0.65019,-1.31841 -0.3934,-1.32388 -0.79773,-3.80205 -0.65019,-3.81299 -0.27321,-3.80204 -0.12018,-3.81847 0.12018,-3.80204 0.39342,-3.813 0.66112,-3.80205 0.78678,-3.81845"
       sodipodi:nodetypes="ccccccccccccccccccccccccccccccccccccccccccccccccccccccccccccccccccccccccccccccccccccccccccccccccccccccccccccccccccccccccccccccccccccccccccccccc" /><path
       style="fill:#000000;stroke:#000000;stroke-width:0.25486341;stroke-linecap:butt;stroke-linejoin:round;stroke-miterlimit:10;stroke-dasharray:none;stroke-opacity:1"
       d="m 398.07931,471.30607 -0.13572,-0.1247 -0.25423,-0.13021 -0.13503,-0.1247 -0.13021,-0.13021 -0.1247,-0.27076 -0.12952,-0.1247 v -0.25973 -39.43476 -0.25422 l 0.12952,-0.13021 0.1247,-0.27145 0.13021,-0.12401 0.13503,-0.13021 0.25423,-0.13021 0.13572,-0.1247 h 0.25421 1.56944 0.25421 l 0.26524,0.1247 0.12471,0.13021 0.12952,0.13021 0.13572,0.12401 0.13503,0.27145 0.11919,0.13021 v 0.25422 15.48758 0.26042 l 0.13504,0.26525 0.13572,0.13021 0.11919,0.1302 0.13503,0.1247 0.13572,0.12953 0.25423,0.1247 h 0.26523 3.12302 0.77919 l 0.77921,0.13021 0.6552,0.14123 0.77919,0.25423 0.65519,0.38511 0.64348,0.27076 0.6552,0.51464 0.50844,0.39615 0.52566,0.50913 0.52499,0.65589 0.38374,0.52566 0.38995,0.6552 0.40579,0.64003 0.25421,0.77989 0.13022,0.78059 0.1247,0.77988 0.12952,1.04101 0.13572,1.18086 v 1.1657 1.17535 1.16501 1.041 l -0.13572,1.17604 -0.12952,1.16501 -0.1247,0.78539 -0.13022,0.78058 -0.25421,0.65589 -0.40579,0.77988 -0.38995,0.65037 -0.38374,0.51464 -0.52499,0.65037 -0.52566,0.52567 -0.50844,0.38512 -0.6552,0.40096 -0.64348,0.38444 -0.65519,0.39546 -0.77919,0.13021 -0.6552,0.25491 -0.77921,0.1247 h -0.77919 -7.03624 z m 3.90221,-3.90703 h 0.26523 3.12302 l 0.77919,-0.12471 0.77921,-0.1302 0.6552,-0.38512 0.64416,-0.52567 0.65449,-0.52498 0.38995,-0.64003 0.25422,-0.7799 0.27076,-0.78058 v -1.05133 l 0.12952,-1.04031 v -1.0348 -1.041 -1.05134 -1.0348 l -0.12952,-1.04031 v -1.03481 l -0.27076,-0.78058 -0.25422,-0.78609 -0.38995,-0.65036 -0.65449,-0.52499 -0.64416,-0.51533 -0.6552,-0.39546 -0.77921,-0.2549 h -0.77919 -3.12302 -0.26523 l -0.25423,0.12469 h -0.13572 l -0.13503,0.25491 -0.11919,0.14606 -0.13572,0.1247 -0.13504,0.25491 v 0.26042 13.7962 0.25491 l 0.13504,0.14675 0.13572,0.25422 0.11919,0.1247 0.13503,0.13021 0.13572,0.13021 z"
       id="path28227"
       inkscape:connector-curvature="0" /><path
       sodipodi:nodetypes="ccccccccccccccccccccccccccccccccccccccccccccccccccccccccccccccccccccccccccccccccccccccccccccccccccccccccccccccccccccccccccccccccccccccc"
       inkscape:connector-curvature="0"
       id="path28461"
       style="fill:#000000;stroke:#000000;stroke-width:0.2621333;stroke-linecap:butt;stroke-linejoin:round;stroke-miterlimit:10;stroke-dasharray:none;stroke-opacity:1"
       d="m 225.71498,394.51555 -0.40081,0.80818 -0.13917,0.93079 -0.12247,0.93636 -0.13917,0.93637 0.13917,0.8026 0.12247,0.93637 0.27834,0.80259 0.40081,0.80818 0.4008,0.80261 0.53441,0.80259 0.53998,0.65768 0.66245,0.54065 0.81274,0.54064 0.80162,0.52949 0.79605,0.40688 0.94079,0.26195 0.93521,0.13377 0.93522,0.1282 0.94079,-0.1282 0.80161,-0.13377 0.93522,-0.26195 0.80161,-0.27869 0.81276,-0.39572 0.79604,-0.54064 0.67915,-0.52392 0.52327,-0.6744 0.67359,-0.66884 0.4008,-0.80261 0.40081,-0.80817 0.27277,-0.8026 0.26164,-0.93636 v -0.26196 -0.26196 l -0.1336,-0.27868 -0.12804,-0.26196 -0.1336,-0.13377 -0.27834,-0.12819 h -0.26164 l -0.26163,-0.13377 h -1.4752 l -0.27833,0.13377 h -0.12248 l -0.27277,0.12819 h -0.12803 l -0.13361,0.13377 -0.13917,0.26196 v 0.13376 l -0.13917,0.14492 -0.26163,0.93637 -0.53998,0.80259 -0.66245,0.80261 -0.81274,0.52948 -0.79605,0.27312 -0.94079,0.13377 h -0.93522 l -0.94078,-0.27869 -0.93522,-0.39572 -0.66245,-0.66884 -0.67358,-0.80818 -0.40081,-0.80259 -0.13916,-0.93637 v -0.93079 l 0.13916,-0.93637 0.40081,-0.93636 v 0 l 10.97212,-18.34277 0.4008,-0.93637 0.41194,-0.80816 0.26164,-0.9308 0.13918,-0.93636 v -0.93638 l -0.13918,-0.80259 -0.1336,-0.93637 -0.26164,-0.8026 -0.27834,-0.80818 -0.4008,-0.8026 -0.52328,-0.8026 -0.67358,-0.6744 -0.67914,-0.52393 -0.65689,-0.54064 -0.80161,-0.52949 -0.94079,-0.40688 -0.93522,-0.26195 -0.93521,-0.13377 -0.94079,-0.14492 -0.93522,0.14492 -0.80162,0.13377 -0.93521,0.26195 -0.81275,0.26197 -0.80162,0.41244 -0.66244,0.54064 -0.67358,0.52392 -0.67915,0.67441 -0.52328,0.66883 -0.53441,0.80818 -0.40081,0.8026 -0.27833,0.93637 -0.26164,0.93637 v 0.26196 l 0.12247,0.12819 v 0.27868 l 0.13917,0.26196 0.27833,0.13376 0.12248,0.13377 0.27833,0.1282 h 0.26164 1.6088 0.12804 l 0.27277,-0.1282 h 0.13917 l 0.12246,-0.13377 0.13918,-0.13376 0.13916,-0.1282 0.12248,-0.27868 v -0.13376 l 0.4008,-0.93637 0.41194,-0.8026 0.66245,-0.8026 0.80162,-0.39573 0.81275,-0.40687 0.93521,-0.13377 h 1.06326 l 0.94078,0.27868 0.81275,0.39573 0.79605,0.66883 0.53998,0.80818 0.40081,0.80259 0.26163,0.93637 v 0.93637 l -0.26163,0.9308 -0.40081,0.93636 v 0 l -10.98882,18.41243 z" /><path
       style="fill:#000000;stroke:#000000;stroke-width:0.25718686;stroke-linecap:butt;stroke-linejoin:round;stroke-miterlimit:10;stroke-dasharray:none;stroke-opacity:1"
       d="m 190.95378,406.28392 -0.27322,-0.14253 -0.13627,-0.13139 -0.12028,-0.12514 -0.26766,-0.13141 v -0.13139 l -0.12514,-0.27323 v -0.25723 -39.39451 -0.12584 l 0.12514,-0.26279 v -0.26767 l 0.26766,-0.1314 0.12028,-0.1314 0.13627,-0.12583 h 0.27322 l 0.25654,-0.1307 h 1.56774 l 0.13627,0.1307 h 0.26766 l 0.25724,0.12583 0.13626,0.1314 0.12584,0.1314 0.1307,0.26767 v 0.26279 l 0.13696,0.12584 v 15.50293 0.25723 0.26211 l 0.13627,0.12583 0.12027,0.14253 0.13627,0.1307 0.25723,0.1314 0.27253,0.12583 h 0.1314 3.66456 0.27322 l 0.13627,-0.12583 h 0.12027 l 0.27323,-0.1314 0.12027,-0.1307 0.13627,-0.14253 v -0.25724 l 0.1314,-0.1307 2.76353,-15.886 v -0.26279 l 0.12028,-0.14183 0.13626,-0.12584 0.13696,-0.1314 0.13071,-0.1314 0.25654,-0.12583 h 0.13696 l 0.25654,-0.1307 h 1.44747 l 0.25654,0.1307 h 0.27322 l 0.25654,0.12583 0.13696,0.2628 0.13071,0.12584 0.12583,0.27322 v 0.25724 0.25723 l -3.02077,17.47113 c -0.19604,0.20431 -0.12081,0.19497 0,0.39906 v 0.25724 0.13139 c 0.17389,0.0707 0.1841,0.18295 0.25723,0.25724 l 0.52977,0.53046 0.52976,0.66117 0.38794,0.53046 0.39281,0.64517 0.3935,0.7877 0.27322,0.66186 0.13071,0.65629 0.12583,0.79257 0.1307,1.17562 v 1.04494 l 0.13697,1.19162 v 1.17633 1.18606 l -0.13697,1.0505 v 1.17563 l -0.1307,1.19162 -0.12583,0.7877 -0.26767,0.64517 -0.13626,0.78769 -0.3935,0.66187 -0.39281,0.65629 -0.38794,0.66116 -0.52976,0.51448 -0.52977,0.53046 -0.51377,0.38793 -0.66047,0.53047 -0.66116,0.25723 -0.65004,0.40462 -0.78631,0.25655 -0.66116,0.13139 -0.78631,0.14253 h -0.7863 -6.96412 z m 3.66525,-3.94266 h 0.27253 0.1314 3.15148 0.7863 l 0.78631,-0.25723 0.78144,-0.40463 0.52976,-0.38863 0.66047,-0.6556 0.3935,-0.66186 0.25654,-0.66186 0.27322,-0.91353 v -1.04979 l 0.12028,-0.9184 v -1.04493 -1.06023 -1.0505 -1.04423 l -0.12028,-1.06092 v -0.9184 l -0.27322,-0.91909 -0.25654,-0.64517 -0.3935,-0.6563 -0.66047,-0.66186 -0.52976,-0.40462 -0.78144,-0.38238 -0.78631,-0.26279 h -0.7863 -3.15148 -0.1314 -0.27253 l -0.25723,0.13139 -0.13627,0.1314 -0.12027,0.12584 -0.13627,0.25654 v 0.27392 0.1307 13.78084 0.27323 0.25723 l 0.13627,0.13141 0.12027,0.27322 0.13627,0.12583 z"
       id="path28741"
       inkscape:connector-curvature="0" /><g
       id="g29047"
       transform="matrix(0.12014,0,0,0.12014,260.42148,685.89696)"><g
         id="g29049"
         transform="scale(10.928,8.0277)"><g
           id="g29051"
           clip-path="url(#clipPath29055)" /></g></g><path
       sodipodi:nodetypes="ccccccccccccccccccccccccccccccccccccccccccccccccccccccccccccccccccccccccc"
       inkscape:connector-curvature="0"
       id="path39518"
       style="fill:#000000;stroke:#000000;stroke-width:0.23911957;stroke-linecap:butt;stroke-linejoin:round;stroke-miterlimit:10;stroke-dasharray:none;stroke-opacity:1"
       d="m 323.83155,338.45493 -0.12185,-0.11696 h -0.23861 l -0.12693,-0.12206 h -0.25385 l -0.11169,-0.25426 -0.12693,-0.11696 v -0.12205 l -0.12692,-0.23901 -0.1117,-0.49328 -0.24876,-0.49328 -0.36555,-0.48311 -0.23862,-0.37123 -0.49247,-0.36106 -0.37569,-0.25427 -0.47723,-0.23901 -0.61941,-0.11696 -0.12184,-0.12205 -0.24369,-0.12205 -0.12185,-0.13222 -0.12692,-0.11697 -0.1117,-0.12203 v -0.23902 l -0.12693,-0.12205 v -0.25427 -1.70359 -0.2441 l 0.12693,-0.11695 0.1117,-0.25428 0.12692,-0.12204 0.12185,-0.23902 h 0.24369 l 0.24878,-0.11696 h 0.23862 1.47232 v 0 h 0.23862 l 0.24877,-0.1373 0.2437,-0.11697 0.12184,-0.12205 0.12692,-0.11696 0.1117,-0.24409 0.12692,-0.25427 v -0.23901 0 -28.83395 -0.24918 l 0.12693,-0.12204 0.11169,-0.23902 0.12693,-0.23901 0.12692,-0.13731 0.23861,-0.11696 h 0.12693 0.23862 1.59417 0.23863 0.25384 l 0.23862,0.11696 0.12692,0.13731 0.12185,0.23901 0.11678,0.23902 0.12184,0.12204 v 0.24918 36.65013 0.25427 l -0.12184,0.23901 -0.11678,0.12205 -0.12185,0.23901 -0.12692,0.13221 -0.23862,0.12206 h -0.25384 l -0.23863,0.11696 z" /><path
       sodipodi:nodetypes="cccccccccccccccccccccccccccccccccccccccccccccccccccccccccccccccccccccccccccccccccccccccccccccccccccccccccccccccccccccccccccccccccccccccccccccccccccccccccccccccccccccccccccccccccccccccccccccccccccccccccccccccccccccccc"
       inkscape:connector-curvature="0"
       id="path39820"
       style="fill:#000000;stroke:#000000;stroke-width:0.2428991;stroke-linecap:butt;stroke-linejoin:round;stroke-miterlimit:10;stroke-dasharray:none;stroke-opacity:1"
       d="m 397.97154,305.56283 0.25786,-0.86784 0.2424,-0.74387 0.49509,-0.74903 0.37132,-0.61989 0.50025,-0.62505 0.62402,-0.50108 0.61372,-0.48557 0.62402,-0.38227 0.62918,-0.36676 0.61371,-0.25312 0.75296,-0.24796 1.48012,-0.24279 h 1.49559 l 1.48013,0.24279 1.36666,0.50108 0.62919,0.24795 0.73748,0.37709 0.50025,0.48559 0.62403,0.50108 0.48478,0.49073 0.50025,0.62507 0.38163,0.74387 0.37132,0.61988 0.24239,0.86784 0.25786,0.74387 0.11346,0.99182 v 0.87817 1.35859 1.24494 l -0.11346,1.36893 -0.12893,1.36891 -0.25786,1.22944 -0.24239,1.36892 -0.37132,1.24495 -0.2527,1.23461 -0.2424,0.38226 -0.12893,0.3616 -0.24239,0.38226 -0.12892,0.36677 -0.24239,0.24279 -0.25271,0.3771 -0.24239,0.24279 -0.25786,0.38226 0.25786,0.2428 0.24239,0.37708 0.25271,0.24796 0.24239,0.3616 0.12892,0.38226 0.24239,0.24279 0.12893,0.38228 0.2424,0.36159 0.2527,0.74903 0.24754,0.61989 0.12378,0.74387 0.24239,0.74901 0.12893,0.6199 0.12893,0.74903 0.12893,0.74386 0.11346,0.74387 v 0.99182 0.86268 l -0.11346,0.99183 -0.25786,0.74385 -0.24239,0.74387 -0.37132,0.74904 -0.49509,0.74387 -0.50026,0.61988 -0.50025,0.50108 -0.62402,0.49074 -0.61371,0.3771 -0.62403,0.49075 -0.74264,0.25312 -0.62402,0.24795 -0.74264,0.24279 -0.86642,0.13431 h -0.74264 -0.75295 -0.74264 l -0.73749,-0.13431 -0.7581,-0.24279 -0.73749,-0.24795 -0.74264,-0.25312 -0.62403,-0.36677 -0.6137,-0.50108 -0.62403,-0.49074 -0.50025,-0.61988 -0.50025,-0.74387 -0.36616,-0.74905 -0.37133,-0.74385 -0.25786,-0.86785 -0.24238,-0.98665 v -0.25829 -0.24278 l 0.12892,-0.24279 0.11346,-0.25829 0.12893,-0.12398 0.25271,-0.11881 0.24755,-0.12398 h 0.2527 1.60905 0.2424 l 0.12893,0.12398 h 0.24239 l 0.12892,0.11881 0.12893,0.12398 0.12378,0.11881 0.11862,0.25829 v 0.12398 l 0.36616,0.98665 0.38679,0.86784 0.61371,0.62506 0.62402,0.50108 0.74265,0.36676 0.73748,0.11881 0.87157,0.13431 0.75295,-0.13431 0.86642,-0.11881 0.74264,-0.36676 0.62403,-0.38227 0.6137,-0.61989 0.37133,-0.60955 0.38163,-0.86785 0.11862,-0.88334 v -0.98666 0 -0.62505 l -0.11862,-0.48558 -0.12377,-0.62505 v -0.50108 l -0.25786,-0.48558 -0.11346,-0.62505 -0.12893,-0.50107 -0.2424,-0.50108 v 0 l -0.25785,-0.48558 -0.24239,-0.50107 -0.25271,-0.36677 -0.50025,-0.38227 -0.37132,-0.24278 -0.49509,-0.24279 -0.50025,-0.13431 h -0.61371 v 0 h -0.73748 l -0.25787,-0.12398 h -0.12893 l -0.24239,-0.11881 -0.12377,-0.12398 -0.11862,-0.24279 -0.12894,-0.13948 -0.12376,-0.24279 v -0.24279 -1.61171 -0.13431 l 0.12376,-0.24279 0.12894,-0.24795 0.11862,-0.11882 0.12377,-0.12398 0.24239,-0.1343 0.12893,-0.12398 h 0.25787 0.73748 v 0 h 0.50024 l 0.4951,-0.11881 0.37132,-0.12398 0.50026,-0.24279 0.37131,-0.25828 0.24239,-0.36677 0.37133,-0.3771 0.25269,-0.36677 v 0 l 0.24239,-1.12613 0.25787,-1.22944 0.24238,-1.12613 0.12894,-1.11064 0.12377,-1.12612 0.11862,-1.22944 v -1.12613 -1.23462 0 -0.87817 l -0.24239,-0.86784 -0.37132,-0.74387 -0.50026,-0.60955 -0.62402,-0.50108 -0.74264,-0.38226 -0.62401,-0.24279 -0.87158,-0.24279 h -0.73748 l -0.74264,0.12398 -0.75295,0.24279 -0.74264,0.37709 -0.62403,0.49075 -0.48478,0.61988 -0.3868,0.74387 -0.36615,0.99182 v 0.13431 l -0.11863,0.24279 -0.12378,0.12399 -0.12893,0.12397 -0.12892,0.11882 -0.24239,0.13429 h -0.12893 -0.2424 -1.60905 -0.2527 l -0.24755,-0.13429 -0.25271,-0.11882 -0.12893,-0.12397 -0.11346,-0.24279 -0.12892,-0.25829 v -0.24279 -0.24279 z" /><path
       style="fill:#000000;stroke:#000000;stroke-width:0.23983504;stroke-linecap:butt;stroke-linejoin:round;stroke-miterlimit:10;stroke-dasharray:none;stroke-opacity:1"
       d="m 198.3595,272.57797 -0.12605,-0.1177 h -0.12606 l -0.11352,-0.12187 h -0.12605 l -0.12675,-0.1177 -0.12536,-0.13789 -0.11352,-0.23957 -7.3536,-15.07215 v -0.12257 l -0.12606,-0.12188 v -0.11769 -0.13789 -10.40467 -0.25559 l 0.12606,-0.23958 0.11351,-0.117 0.12606,-0.24514 0.12605,-0.13232 0.24027,-0.1177 h 0.25211 0.23957 9.32033 l 0.23957,-0.12187 h 0.25211 l 0.11351,-0.12258 0.25281,-0.11769 0.11352,-0.25489 0.12605,-0.12257 v -0.23958 l 0.12606,-0.23957 v -8.82934 -0.23958 -0.25488 l 0.12605,-0.12258 0.11352,-0.23959 0.2521,-0.11767 0.11352,-0.1372 h 0.25211 0.24027 1.60109 0.24027 0.25141 l 0.11422,0.1372 0.2521,0.11767 0.11352,0.23959 0.12606,0.12258 v 0.25488 0.23958 9.43106 l 0.12605,0.13301 v 0.12188 0.11769 h 0.12605 v 0.12258 h 0.11352 0.12606 l 0.12605,0.12187 h 0.11421 0.12536 0.12606 v 0.1177 l 0.12675,0.13232 v 0.12257 l 0.11352,0.12257 v 2.82054 l -0.11352,0.11701 v 0.12257 l -0.12675,0.12257 v 0.117 h -0.12606 -0.12536 -0.11421 -0.12605 l -0.12606,0.12257 h -0.11352 v 0.13233 h -0.12605 v 0.12257 0.1177 l -0.12605,0.12187 v 22.17782 0.25489 0.23958 l -0.12606,0.23957 -0.11352,0.13789 -0.2521,0.1177 -0.11422,0.12187 -0.25141,0.1177 h -0.24027 -5.88971 z m 2.08093,-4.77403 h 0.36563 l 0.36562,-0.25559 0.25281,-0.23957 0.23957,-0.23958 0.12606,-0.49446 v -16.78606 l -0.12606,-0.24514 v -0.25002 l -0.12605,-0.12257 -0.11352,-0.23957 -0.25281,-0.12257 -0.11351,-0.13233 h -0.25211 l -0.23957,-0.12257 h -5.39803 l -0.23958,0.12257 h -0.2521 l -0.23958,0.13233 -0.12675,0.12257 -0.12535,0.23957 -0.11352,0.12257 -0.12675,0.25002 v 0.24514 5.63064 l 0.12675,0.49516 5.51085,11.15472 0.24027,0.36215 0.25211,0.25002 z"
       id="path40032"
       inkscape:connector-curvature="0" /><path
       inkscape:connector-curvature="0"
       id="path40038"
       style="fill:#000000;stroke:#000000;stroke-width:0.23834689;stroke-linecap:butt;stroke-linejoin:round;stroke-miterlimit:10;stroke-dasharray:none;stroke-opacity:1"
       d="m 235.59847,261.01144 v 0.12165 0 0 0 0 0 0 0 0 l 0.36436,6.57946 v 0 0.11658 0.12166 l 0.12651,0.12165 v 0.11659 0.13178 l 0.12146,0.12167 0.12651,0.12164 v 0.11659 h 0.11133 l 0.12652,0.12165 0.12651,0.11659 h 0.11133 0.12652 l 0.12651,0.13686 h 0.12146 0.11638 v 0 h 8.64852 v 0 h 0.12652 v 0 h 0.12146 0.11639 l 0.12146,0.11658 v 0 l 0.12651,0.12166 h 0.12651 v 0.11659 h 0.11134 v 0.12164 0.12165 l 0.12651,0.1318 v 0 0.11658 0.12165 0 0 1.45985 0 0.12165 0.23825 l -0.12651,0.13685 v 0.23825 l -0.11134,0.11658 -0.25302,0.12166 -0.12146,0.12165 h -0.23785 -0.12652 -0.23783 v 0 h -11.93284 v 0 h -0.12651 -0.12652 -0.12651 -0.11134 -0.1265 v -0.12165 h -0.12146 l -0.1164,-0.12166 v 0 l -0.12145,-0.11658 v 0 l -0.12651,-0.12166 v 0 -0.11659 -0.13685 l -0.12652,-0.11659 v -0.12166 0 0 0 -0.35987 0 l -0.96657,-16.56016 v 0 -0.13687 0 -0.11658 -0.12166 0 l 0.11639,-0.11658 v -0.12165 0 l 0.12146,-0.12166 v 0 -0.13179 h 0.12651 v -0.11658 h 0.11133 0.12652 v -0.12166 h 0.12652 v 0 0 0 l 1.94325,-0.61334 v 0 h 0.12652 v 0 h 0.12145 0.12652 0.11639 v 0 h 0.12146 l 0.12651,0.12166 v 0 l 0.11133,0.13178 h 0.12651 v 0.12166 h 0.12652 v 0.11659 h 0.12651 v 0.12165 0.12166 0 l 0.23785,0.49168 0.23785,0.35482 0.37448,0.49169 0.36436,0.24331 0.36436,0.37003 0.36437,0.23823 0.3593,0.23825 0.49087,0.13685 0.12652,0.11659 h 0.23784 0.24796 l 0.1164,0.12166 h 0.24797 0.23785 0.25303 0.11133 0.25303 0.23785 0.24796 l 0.11133,-0.12166 h 0.25304 l 0.23784,-0.11659 h 0.12652 l 0.23784,-0.13685 0.48582,-0.11659 0.36436,-0.23824 0.37954,-0.37509 0.3593,-0.23824 0.36437,-0.3599 0.23784,-0.49169 0.25303,-0.49168 0.23785,-0.47648 v -0.25344 0 l 0.12651,-0.97323 0.12145,-0.84652 v -0.97323 -0.98337 -0.96816 l -0.12145,-0.85158 -0.12651,-0.97323 -0.11134,-0.98337 -0.25303,-0.84651 -0.23785,-0.97324 -0.24796,-0.85157 -0.36436,-0.85158 -0.36436,-0.98337 -0.36436,-0.85158 -0.49088,-0.72992 -0.3593,-0.85158 v 0 l -0.25303,-0.23824 -0.11133,-0.37004 v 0.11658 l -0.25303,-0.23822 -0.36436,-0.11659 -0.23784,-0.12166 -0.24798,-0.12165 -0.36436,-0.11659 -0.23784,-0.13179 h -0.37449 -0.23785 -0.36435 -0.36437 l -0.37448,0.13179 -0.36437,0.11659 -0.23784,0.12165 -0.36436,0.12166 -0.25303,0.23823 -0.23784,0.25345 -0.12146,0.11659 h -0.12651 l -0.1164,0.12165 v 0.11659 l -0.12145,0.12164 h -0.12651 v 0.12166 l -0.11134,0.13179 -0.12651,0.11658 v 0.12166 h -0.12652 l -0.12651,0.12165 v 0.11659 l -0.11133,0.12165 v 0.13179 l -0.12651,0.12166 v 0 0 l -0.12146,0.11658 v 0 l -0.11639,0.12165 v 0 l -0.12652,0.11659 v 0 h -0.12145 -0.12652 v 0.12165 h -0.11133 -0.12651 v 0 h -0.12651 -0.11134 v -0.12165 h -0.25303 v 0 l -0.72366,-0.23824 v 0 l -0.25303,-0.11658 h -0.11133 -0.12651 v -0.12166 h -0.12652 l -0.12652,-0.13179 v 0 l -0.11133,-0.12165 v -0.11659 0 l -0.12651,-0.12165 v -0.12166 -0.11658 0 -0.13179 -0.12166 -0.12164 0 0 0 l 0.23784,-0.4917 0.25304,-0.47648 0.23784,-0.49168 0.25303,-0.35989 0.23785,-0.49169 0.3593,-0.35989 0.37954,-0.37004 0.36436,-0.23823 0.3593,-0.3751 0.36437,-0.23824 0.36435,-0.23823 0.36437,-0.13179 0.36436,-0.24331 0.48581,-0.1166 0.36436,-0.12164 0.49087,-0.11658 h 0.48583 l 0.36436,-0.13687 h 0.49087 0.36436 l 0.48582,0.13687 h 0.49087 l 0.36437,0.11658 0.48581,0.12164 0.49088,0.1166 0.36436,0.24331 0.48581,0.24837 0.36436,0.24331 0.49088,0.23824 0.36436,0.37003 0.3593,0.3599 0.37954,0.37002 0.60221,1.09489 0.61233,0.98337 0.48582,1.08982 0.48075,1.09996 0.37448,1.08982 0.36437,1.08981 0.36435,1.10502 0.23785,1.08982 0.12145,1.22162 0.25304,1.08981 v 1.22668 l 0.11133,1.22161 -0.11133,1.08982 v 1.2216 l -0.12652,1.08982 -0.24797,1.22668 -0.23785,0.84651 -0.36435,0.73499 -0.36437,0.72993 -0.49087,0.61334 -0.61233,0.60827 -0.6022,0.48154 -0.61234,0.49169 -0.72873,0.47648 -0.73884,0.25344 -0.72872,0.3599 -0.72366,0.11658 -0.85524,0.13686 -0.85017,0.11659 -0.73885,-0.11659 -0.85523,-0.13686 -0.85019,-0.23824 h -0.11638 v 0 0 0 h -0.12146 v 0 h -0.12652 v 0 H 236.813 v 0 h -0.11133 -0.12651 v 0 l -0.12652,0.12166 h -0.11133 -0.12651 v 0.11658 h -0.12146 l -0.12651,0.13686 v 0 l -0.1164,0.11659 v 0.12165 h -0.12145 v 0.11658 l -0.12651,0.12165 v 0.12165 0 0 0.1318 0 0.11658 0 0 0.12166 0" /><path
       style="fill:#000000;stroke:#000000;stroke-width:0.23764063;stroke-linecap:butt;stroke-linejoin:round;stroke-miterlimit:10;stroke-dasharray:none;stroke-opacity:1"
       d="m 285.01635,272.57907 -0.12627,-0.12077 h -0.24705 l -0.11109,-0.12144 -1.33734,-1.33941 -1.33664,-1.33388 -1.21588,-1.46086 -1.09996,-1.44567 -0.95918,-1.45533 -0.9785,-1.59197 -0.97367,-1.69823 -0.7218,-1.57678 -0.74181,-1.69271 -0.59483,-1.69824 -0.48995,-1.82934 -0.48925,-1.81486 -0.23738,-1.82934 -0.24704,-1.81416 -0.23738,-1.82935 v -1.9363 c 0.0359,-0.63815 0.0774,-1.19284 0.12628,-1.82934 l 0.1111,-0.97022 0.12628,-0.84395 0.23738,-0.97022 0.24705,-0.84947 0.23737,-0.97987 0.25187,-0.84946 0.60036,-1.20277 0.6107,-0.98058 0.84739,-0.84876 0.85291,-0.72802 0.97367,-0.61141 1.0903,-0.35882 1.09442,-0.25255 1.0903,-0.11662 1.09995,0.11662 1.08477,0.25255 1.0896,0.35882 0.97368,0.61141 0.8529,0.72802 0.8474,0.84876 0.6107,0.98058 0.48925,1.20277 0.60036,1.82933 0.36365,1.81969 0.24704,1.81417 0.12628,1.94596 -0.12628,1.81968 -0.12628,1.82935 -0.48441,1.93009 -0.48926,1.83004 -0.60035,1.08615 -0.6107,0.98057 -0.72663,0.84946 -0.97367,0.73284 -0.97368,0.60587 -1.0896,0.35883 -1.08477,0.23807 -1.22624,0.13112 h -0.36365 l -0.23669,0.12145 -0.24774,0.12145 -0.23668,0.23737 -0.12628,0.36849 v 0.23808 0.2422 l 0.12628,0.36919 0.72111,1.3394 0.72663,1.20761 0.86326,1.21795 0.84739,1.20829 0.96401,1.21795 0.97367,1.0965 0.97367,1.09167 1.08961,0.9654 0.24772,0.25255 0.11594,0.11593 v 0.24291 0.36918 0.23738 l -0.11594,0.23738 -0.12144,0.12145 -0.12628,0.25256 -1.33664,0.9654 -0.1111,0.12144 -0.25256,0.12077 h -0.12628 -0.2367 z m -4.25834,-18.09264 h 0.6107 0.48925 l 0.6107,-0.12146 0.47407,-0.11592 0.48925,-0.2429 0.35814,-0.3685 0.37884,-0.49063 0.36298,-0.47476 0.23737,-0.49545 0.48442,-1.57679 0.36298,-1.45534 0.12627,-1.57678 0.12629,-1.46085 -0.12629,-1.57678 -0.12627,-1.57679 -0.36298,-1.45532 -0.48442,-1.46086 -0.23737,-0.60657 -0.36298,-0.48993 -0.37884,-0.35882 -0.35814,-0.37402 -0.48925,-0.23738 -0.47407,-0.23806 -0.6107,-0.12076 h -0.48925 -0.6107 l -0.4796,0.12076 -0.48442,0.23806 -0.48924,0.23738 -0.36298,0.37402 -0.48442,0.35882 -0.25256,0.48993 -0.23738,0.60657 -0.48442,1.46086 -0.36297,1.45532 -0.25256,1.57679 v 1.57678 1.46085 l 0.25256,1.57678 0.36297,1.45534 0.48442,1.57679 0.23738,0.49545 0.25256,0.47476 0.48442,0.49063 0.36298,0.3685 0.48924,0.2429 0.48442,0.11592 z"
       id="path40684"
       inkscape:connector-curvature="0" /><g
       id="g54031"
       transform="matrix(0.63383666,0,0,0.63383666,141.42449,199.78983)"><path
         d="m 287.91816,100.04978 -2.49135,-6.16664 -2.31567,-6.14264 -1.9244,-6.33461 -1.71679,-6.55055 -1.34149,-6.3346 -0.97418,-6.72652 -0.57492,-6.52656 v -0.37592 -0.39991 l 0.19963,-0.37592 0.19962,-0.19195 0.3753,-0.18396 0.3753,-0.21596 0.19963,-0.18395 h 0.39126 v 0 h 2.49134 v 0 h 0.3753 0.39926 l 0.37529,0.18395 0.19963,0.21596 0.19963,0.37591 0.17567,0.18396 0.19963,0.38392 v 0.39191 l 0.19164,3.46324 0.57492,3.46323 0.3753,3.46324 0.59888,3.43924 0.7506,3.45524 0.76656,3.46324 0.97418,3.27127 0.95023,3.46324 0.96619,3.27128 1.14985,3.24728 1.34149,3.46324 1.34149,3.08732 1.5491,3.27127 1.54112,3.06333 1.54112,3.27128 1.72478,3.07932 v 0 l 0.19164,0.19196 v 0 0.19195 0.18396 0 0.19196 0 0 3.85515 0 0.37592 0.38391 l -0.19164,0.39991 -0.38329,0.18396 -0.19164,0.19196 -0.39925,0.18396 -0.17567,0.19196 h -0.39926 v 0 h -22.66162 v 0 h -0.39925 l -0.3753,-0.19196 -0.39127,-0.18396 -0.18366,-0.19196 -0.19164,-0.18396 -0.19963,-0.39991 -0.19962,-0.38391 v -0.37592 0 -2.51145 0 -0.38391 l 0.19962,-0.18396 0.19963,-0.37592 0.19164,-0.21595 0.18366,-0.37592 h 0.39127 l 0.3753,-0.18396 h 0.39925 v 0 h 14.39708 0.39925 l 0.3753,-0.19195 0.39127,-0.39992 0.37529,-0.37591 0.19963,-0.37592 v -0.38392 -0.58387 l -0.19963,-0.37591 z"
         style="fill:#000000;stroke:#000000;stroke-width:0.37608701;stroke-linecap:butt;stroke-linejoin:round;stroke-miterlimit:10;stroke-dasharray:none;stroke-opacity:1"
         id="path40928"
         inkscape:connector-curvature="0"
         sodipodi:nodetypes="ccccccccccccccccccccccccccccccccccccccccccccccccccccccccccccccccccccccccccccccccccccccccccccccc" /></g><path
       style="fill:#000000;stroke:#000000;stroke-width:0.23611994;stroke-linecap:butt;stroke-linejoin:round;stroke-miterlimit:10;stroke-dasharray:none;stroke-opacity:1"
       d="m 363.06054,272.57982 -1.08057,-0.25095 -0.96813,-0.35652 -1.07988,-0.60749 -0.84471,-0.60268 -0.84472,-0.84333 -0.73226,-0.96402 -0.47172,-1.21016 -0.60885,-1.19576 -0.35996,-1.21495 -0.12411,-1.21016 -0.12409,-1.31575 0.12409,-1.21496 0.12411,-1.21016 0.35996,-1.31575 0.60885,-1.09497 0.11176,-0.35653 0.1241,-0.24615 0.1241,-0.24066 0.11176,-0.35173 0.2482,-0.25095 0.1241,-0.23586 0.23655,-0.24134 0.12341,-0.24615 0.11176,-0.11999 0.12479,-0.23655 0.1241,-0.25094 v -0.12067 -0.23586 l -0.1241,-0.23587 -0.12479,-0.13027 -0.11176,-0.24134 -0.2482,-0.35174 -0.35996,-0.37162 -0.23586,-0.47172 -0.2482,-0.37162 -0.11176,-0.48748 -0.24889,-0.47173 -0.12342,-0.48681 -0.11176,-0.48749 -0.36064,-1.56669 -0.24821,-1.56669 -0.12409,-1.45082 v -1.56738 l 0.12409,-1.56668 0.24821,-1.5667 0.36064,-1.56669 0.48407,-1.45082 0.59582,-1.20946 0.71992,-1.0799 0.96882,-0.84266 0.96881,-0.72404 1.07989,-0.4875 1.21701,-0.35586 1.20468,-0.13164 h 1.20398 l 1.08057,0.25026 1.21702,0.35519 1.07989,0.48817 0.96881,0.72404 0.84403,0.84266 0.7206,1.07986 0.60818,1.21154 0.36064,1.33016 0.23517,1.33082 0.24889,1.31573 0.11176,1.33087 0.12411,1.446 -0.12411,1.33083 -0.11176,1.45151 -0.24889,1.33014 -0.23517,1.31575 -0.12479,0.48749 -0.1241,0.48681 -0.23586,0.47173 -0.23587,0.48748 -0.2482,0.37162 -0.23586,0.47172 -0.2482,0.37162 -0.35996,0.35174 -0.12479,0.24134 v 0.13027 l -0.11176,0.23587 v 0.23586 0.12067 l 0.11176,0.25094 v 0.23655 l 0.12479,0.11999 0.23518,0.24615 0.24889,0.24134 0.12409,0.23586 0.11177,0.25095 0.24751,0.35173 0.12478,0.24066 0.11177,0.24615 0.1241,0.35653 0.48475,1.09497 0.35996,1.31575 0.23586,1.21016 0.12411,1.21496 -0.12411,1.31575 -0.23586,1.21016 -0.35996,1.21495 -0.48475,1.19576 -0.60816,1.21016 -0.59651,0.96402 -0.84403,0.84333 -0.96881,0.60268 -0.96813,0.60749 -1.08057,0.35652 -1.09223,0.25095 h -1.08057 z m 0.60886,-3.86153 h 0.48406 0.59582 l 0.60817,-0.13028 0.48475,-0.23586 0.48406,-0.23655 0.48406,-0.37093 0.36065,-0.4724 0.35996,-0.48681 0.35996,-0.60817 0.35996,-0.84333 0.24889,-0.84335 0.11176,-0.83854 v -0.84402 -0.84334 l -0.11176,-0.85911 -0.24889,-0.83855 -0.35996,-0.72814 -0.35996,-0.60269 -0.35996,-0.47652 -0.36065,-0.48749 -0.48406,-0.35653 -0.48406,-0.24615 -0.48475,-0.24066 -0.60817,-0.11587 h -0.59582 -0.48406 l -0.60886,0.11587 -0.47172,0.24066 -0.60885,0.24615 -0.35996,0.35653 -0.48406,0.48749 -0.35997,0.47652 -0.2482,0.60269 -0.36065,0.72814 -0.23517,0.83855 -0.12479,0.85911 -0.1241,0.84334 0.1241,0.84402 0.12479,0.83854 0.23517,0.84335 0.36065,0.84333 0.2482,0.60817 0.35997,0.48681 0.48406,0.4724 0.35996,0.37093 0.60885,0.23655 0.47172,0.23586 z m 0.71991,-15.56683 0.60817,-0.11519 0.60885,-0.13095 0.47172,-0.24067 0.48407,-0.35173 0.48475,-0.48681 0.48406,-0.48749 0.23587,-0.60748 0.12409,-0.12067 v -0.11519 -0.12067 -0.12068 l 0.12411,-0.11518 v -0.13028 -0.12067 l 0.23585,-1.20056 0.24889,-1.08948 0.11176,-1.19988 v -1.09497 -1.19507 l -0.11176,-1.09496 -0.24889,-1.21017 -0.23585,-1.07919 -0.12411,-0.72338 -0.23585,-0.60745 -0.35997,-0.47722 -0.48475,-0.4868 -0.48406,-0.36684 -0.48406,-0.23584 -0.60817,-0.23587 -0.59651,-0.12069 h -0.60817 l -0.5965,0.12069 -0.48406,0.11518 -0.60817,0.23587 -0.48407,0.37162 -0.48474,0.35653 -0.35997,0.4875 -0.35996,0.60268 -0.35996,1.33012 -0.2482,1.20059 -0.23655,1.21014 -0.1241,1.33084 0.1241,1.19987 v 1.33084 l 0.23655,1.21016 0.2482,1.31574 0.23586,0.60748 0.2482,0.60268 0.35997,0.60748 0.48406,0.35654 0.48475,0.36681 0.48406,0.35654 0.59583,0.11999 0.60885,0.13095 z"
       id="path40930"
       inkscape:connector-curvature="0" /><path
       style="fill:#000000;stroke:#000000;stroke-width:0.240587;stroke-linecap:butt;stroke-linejoin:round;stroke-miterlimit:10;stroke-dasharray:none;stroke-opacity:1"
       d="m 405.7172,272.57759 -1.11359,-0.11737 -1.10381,-0.25569 -0.98575,-0.36328 -0.98574,-0.49672 -0.98574,-0.73633 -0.73564,-0.86 -0.73564,-0.97736 -0.49043,-1.23794 -0.62316,-1.83666 -0.36258,-1.85203 -0.24522,-1.83735 -0.12295,-1.85202 0.12295,-1.83666 0.24522,-1.97498 0.36258,-1.83735 0.62316,-1.71859 0.49043,-1.1108 0.60779,-0.98225 0.86349,-0.85929 0.85789,-0.73704 0.98575,-0.61897 1.11359,-0.49602 1.10381,-0.24102 h 1.22537 l 0.36817,-0.11737 h 0.2501 l 0.24033,-0.24591 0.12784,-0.25569 0.12715,-0.24033 0.11248,-0.24032 v -0.37376 l -0.11248,-0.24591 -0.74542,-1.35042 -0.73564,-1.23795 -0.8579,-1.21768 -0.86349,-1.23865 -0.98575,-1.21768 -0.97595,-1.11567 -0.98575,-0.97668 -1.11359,-1.0486 -0.11247,-0.18793 -0.12786,-0.24173 -0.12714,-0.24172 v -0.255 -0.24102 l 0.12714,-0.24172 0.12786,-0.255 0.24032,-0.12086 1.22606,-0.97943 0.12715,-0.12086 0.24032,-0.13414 h 0.2557 0.12226 0.24032 0.12784 l 0.23963,0.13414 0.12784,0.12086 1.35392,1.35529 1.35321,1.34205 1.10381,1.35601 1.22607,1.47336 0.98575,1.47898 0.98574,1.59633 0.86349,1.59633 0.73005,1.71929 0.73564,1.72907 0.61827,1.71929 0.49532,1.7137 0.49043,1.85272 0.36747,1.71859 0.12784,1.83735 c 0.20479,1.7074 0.12226,3.30637 0.11248,4.68141 v 0.98225 l -0.11248,0.97737 -0.12784,0.85998 -0.2501,0.99204 -0.11737,0.85999 -0.36258,0.97736 -0.2557,0.8593 -0.49043,1.23794 -0.73564,0.97736 -0.73494,0.86 -0.98644,0.73633 -0.98574,0.49672 -0.98575,0.36328 -1.10311,0.25569 z m -0.49602,-3.92901 h 0.49602 0.47995 l 0.61827,-0.13343 0.49531,-0.24033 0.49044,-0.24591 0.36746,-0.37306 0.36818,-0.36327 0.36747,-0.49672 0.2501,-0.61897 0.49602,-1.47337 0.23962,-1.47338 0.24033,-1.60192 0.12784,-1.47338 -0.12784,-1.59633 -0.24033,-1.47897 -0.23962,-1.59633 -0.49602,-1.47338 -0.2501,-0.48623 -0.36747,-0.49602 -0.36818,-0.49671 -0.36746,-0.24033 -0.49044,-0.36327 -0.49531,-0.13274 -0.61827,-0.11807 h -0.47995 -0.49602 l -0.61757,0.11807 -0.49601,0.13274 -0.49532,0.36327 -0.36258,0.24033 -0.36747,0.49671 -0.36818,0.49602 -0.25569,0.48623 -0.47994,1.47338 -0.37796,1.59633 -0.11248,1.47897 -0.12784,1.59633 0.12784,1.47338 0.24033,1.60192 0.25011,1.47338 0.47994,1.47337 0.25569,0.61897 0.36818,0.49672 0.36747,0.36327 0.36258,0.37306 0.49532,0.24591 0.49601,0.24033 z"
       id="path41508"
       inkscape:connector-curvature="0" /><path
       style="fill:#000000;stroke:#1f1a17;stroke-width:0.23834516;stroke-linecap:butt;stroke-linejoin:round;stroke-miterlimit:10;stroke-dasharray:none;stroke-opacity:1"
       d="m 280.21468,338.45531 -0.96549,-0.24362 -0.97724,-0.36958 -0.85268,-0.4817 -0.85267,-0.60836 -0.72602,-0.73017 -0.73986,-0.85129 -0.48932,-1.10529 -0.7267,-3.63908 -0.60144,-3.77681 -0.25123,-3.77612 -0.12458,-3.90832 0.12458,-3.77611 0.25123,-3.77612 0.60144,-3.77129 0.7267,-3.65984 v -0.11627 l 0.48932,-0.97379 0.73986,-0.85129 0.72602,-0.84644 0.85267,-0.6132 0.85268,-0.49209 0.97724,-0.23808 0.96549,-0.23809 0.97725,-0.13704 1.10321,0.13704 0.9648,0.23809 0.97794,0.23808 0.85198,0.49209 0.85267,0.6132 0.73917,0.84644 0.7274,0.85129 0.48863,0.97379 0.7267,3.77611 0.61459,3.77129 0.23808,3.77612 0.12528,3.77611 -0.12528,3.77682 -0.23808,3.90762 -0.61459,3.77681 -0.7267,3.63908 -0.48863,1.10529 -0.7274,0.85129 -0.73917,0.73017 -0.85267,0.60836 -0.85198,0.4817 -0.97794,0.36958 -0.9648,0.24362 h -1.10321 z m 0.97725,-3.89792 0.85267,-0.11696 0.85199,-0.24294 0.36335,-0.24846 0.37581,-0.3599 0.23877,-0.37512 0.36336,-0.35989 0.61389,-3.41623 0.48932,-3.51796 0.2374,-3.41623 0.12596,-3.53873 -0.12596,-3.401 -0.2374,-3.53803 -0.48932,-3.401 -0.61389,-3.41692 -0.36336,-0.49139 -0.23877,-0.35989 -0.37581,-0.23809 -0.36335,-0.25331 -0.85199,-0.35989 -0.85267,-0.12181 -0.85267,0.12181 -0.72672,0.35989 -0.36335,0.25331 -0.36335,0.23809 -0.37651,0.35989 -0.23738,0.49139 -0.61459,3.41692 -0.47617,3.401 -0.25124,3.53803 -0.12457,3.401 0.12457,3.53873 0.25124,3.41623 0.47617,3.51796 0.61459,3.41623 0.23738,0.35989 0.37651,0.37512 0.36335,0.3599 0.36335,0.24846 0.72672,0.24294 z"
       id="path41512"
       inkscape:connector-curvature="0"
       sodipodi:nodetypes="ccccccccccccccccccccccccccccccccccccccccccccccccccccccccccccccccccccccccccccccccccccccccccc" /><path
       sodipodi:nodetypes="ccccccccccccccccccccccccccccccccccccccccccccccccccccccccccccccccccccccccccccccccccccccccccccccccccccccccccccccccccccccccccccccccccccccccccccccccccc"
       inkscape:connector-curvature="0"
       id="path41834"
       style="fill:#000000;stroke:#000000;stroke-width:0.23837772;stroke-linecap:butt;stroke-linejoin:round;stroke-miterlimit:10;stroke-dasharray:none;stroke-opacity:1"
       d="m 360.24002,304.59054 0.12653,-0.37007 v -0.12168 l 0.23789,-0.23826 0.12653,-0.25348 0.23787,-0.1166 h 0.25306 l 0.23788,-0.12167 h 9.99086 v 0 h 0.23789 0.248 l 0.23786,-0.12169 0.12654,-0.1166 0.12653,-0.25347 0.11135,-0.12167 0.12653,-0.23827 v -0.23827 0 -1.5817 0 -0.25349 l -0.12653,-0.23827 -0.11135,-0.12167 -0.12653,-0.25348 -0.12654,-0.1166 -0.23786,-0.12167 h -0.248 l -0.23789,-0.1166 v 0 H 357.0717 v 0 l -0.23786,0.1166 h -0.12654 l -0.23788,0.12167 -0.12653,0.1166 -0.248,0.25348 -0.11641,0.12167 v 0.23827 0.25349 0 l 0.11641,1.6983 0.12147,1.58679 0.25306,1.6983 0.36442,1.58171 0.48586,1.58171 0.49095,1.59691 0.60228,1.4499 0.61241,1.5969 0.72882,1.32824 0.85028,1.46004 0.85534,1.34343 0.97681,1.34344 1.08817,1.34345 1.10334,1.21162 1.09323,1.1001 1.2147,1.21163 0.6124,0.61342 0.49095,0.73001 0.3644,0.73002 0.23788,0.73002 0.248,0.8517 0.12653,0.85168 v 0.73002 0.85169 l -0.12653,0.9835 -0.12147,0.85169 -0.36441,0.85169 -0.49094,0.60834 -0.60228,0.48161 -0.73895,0.37008 -0.72375,0.35994 -0.72881,0.13181 h -0.85535 -0.73894 l -0.72376,-0.24841 -0.72881,-0.35994 -0.61241,-0.49175 -0.61748,-0.73508 -0.3644,-0.73002 -0.23788,-0.96829 -0.12147,-0.12167 -0.12653,-0.25348 -0.11135,-0.1166 -0.12653,-0.12167 -0.12653,-0.11661 -0.23787,-0.12167 h -0.12654 -0.23788 v 0 h -1.58922 v 0 h -0.23788 l -0.23787,0.12167 -0.25307,0.11661 -0.12653,0.12167 -0.11135,0.25347 -0.12653,0.23827 -0.12653,0.23827 0.12653,0.25349 v 0 l 0.12653,0.85167 0.23788,0.84662 0.36441,0.85169 0.36441,0.73509 0.48588,0.60834 0.49093,0.61343 0.61241,0.47654 0.60229,0.49176 0.61241,0.35993 0.60228,0.37009 0.73894,0.24333 0.72882,0.23827 1.46776,0.25349 h 1.45258 l 1.46775,-0.25349 1.34123,-0.4816 0.72881,-0.24842 0.61241,-0.4816 0.60229,-0.37008 0.49093,-0.48161 0.61241,-0.60835 0.36441,-0.61342 0.48589,-0.60835 0.36442,-0.73509 0.23788,-0.73002 0.12652,-0.85168 0.12654,-0.96829 0.12653,-0.8517 v 0 -1.34343 -1.22177 l -0.25307,-1.21163 -0.3644,-1.22177 -0.48588,-1.08995 -0.60229,-1.10516 -0.73894,-1.08996 -0.72881,-0.9835 -1.83217,-1.58171 -1.5791,-1.70338 -1.46776,-1.95179 -1.34122,-1.94165 -1.08817,-2.07345 -0.85535,-2.19513 -0.73894,-2.31172 -0.60228,-2.3168 z" /><path
       sodipodi:nodetypes="ccccccccccccccccccccccccccccccccccccccccccccccccccccccccccccccccccccccccccccccccc"
       inkscape:connector-curvature="0"
       id="path41836"
       style="fill:#000000;stroke:#000000;stroke-width:0.25461477;stroke-linecap:butt;stroke-linejoin:round;stroke-miterlimit:10;stroke-dasharray:none;stroke-opacity:1"
       d="m 247.06705,303.37676 h 0.27029 l 0.13515,-0.12995 0.25409,-0.12996 0.13514,-0.2545 v -0.12454 l 0.11894,-0.27075 v -0.2545 -1.5649 -0.12454 l -0.11894,-0.25991 v -0.26533 l -0.13514,-0.12996 -0.25409,-0.12996 -0.13515,-0.12455 h -0.27029 l -0.25408,-0.12995 h -14.30962 l -0.25407,0.12995 h -0.2703 l -0.13515,0.12455 -0.11894,0.12996 -0.26488,0.12996 v 0.26533 l -0.12434,0.25991 v 0.12454 2.59915 l 0.12434,0.4007 11.57958,32.13194 v 0 0.25451 0.2599 0.39529 l -0.13515,0.12996 -0.25407,0.2545 -0.25409,0.14079 -0.26489,0.12996 h -0.25948 v 0 h -8.84958 -0.2649 l -0.12433,0.12453 -0.26489,0.12997 -0.11893,0.12994 -0.13515,0.12456 -0.13515,0.27074 -0.13515,0.12995 v 0.25451 1.55948 0.2545 l 0.13515,0.27074 0.13515,0.12997 0.13515,0.12995 0.11893,0.2545 h 0.26489 l 0.12433,0.14079 h 0.2649 13.27166 0.26489 l 0.12435,-0.14079 h 0.26489 l 0.11893,-0.2545 0.13514,-0.12995 0.13515,-0.12997 0.13515,-0.27074 v -0.2545 -2.46918 l -0.13515,-0.38446 -11.57959,-32.27815 v 0 -0.2545 -0.2545 -0.27075 l 0.12974,-0.25449 0.25409,-0.12995 0.13514,-0.25451 h 0.25409 l 0.38922,-0.14079 v 0 h 9.89294 z" /><path
       sodipodi:nodetypes="cccccccccccccccccccccccccccccccccccccccccccccccccccccccccccccccccccccccccccccccccccccccccc"
       inkscape:connector-curvature="0"
       id="path42128"
       style="fill:#000000;stroke:#000000;stroke-width:0.25461483;stroke-linecap:butt;stroke-linejoin:round;stroke-miterlimit:10;stroke-dasharray:none;stroke-opacity:1"
       d="m 295.95184,406.28521 h -0.2649 l -0.25407,-0.12996 h -0.13516 l -0.13515,-0.25449 -0.25408,-0.12996 v -0.14079 l -0.12974,-0.2545 v -0.2545 -32.13736 0 -0.90971 l 0.12974,-0.77974 0.25408,-0.77974 0.27031,-0.78517 0.38922,-0.77973 0.38923,-0.65521 0.51898,-0.64979 0.52437,-0.65519 0.51898,-0.50901 0.64331,-0.52524 0.65953,-0.38445 0.77306,-0.27075 0.78928,-0.38446 0.77845,-0.12454 0.77846,-0.1462 0.9082,-0.12454 0.91361,0.12454 0.78926,0.1462 0.77307,0.12454 0.77846,0.2545 0.77846,0.40071 0.65411,0.38445 0.65413,0.52524 0.52439,0.50901 0.6433,0.65519 0.38923,0.64979 0.38382,0.65521 0.40545,0.77973 0.25409,0.78517 0.25408,0.77974 0.13515,0.77974 v 0.90971 0 32.13736 0.2545 l -0.13515,0.2545 v 0.14079 l -0.11893,0.12996 -0.2703,0.25449 h -0.11894 l -0.27029,0.12996 h -0.25408 -1.56773 -0.25409 l -0.12974,-0.12996 h -0.25409 l -0.13514,-0.25449 -0.13516,-0.12996 -0.13514,-0.14079 -0.11893,-0.2545 v -0.2545 -32.13736 0 -0.90971 l -0.2703,-0.90969 -0.51898,-0.77975 -0.52438,-0.65521 -0.6433,-0.52523 -0.77307,-0.38446 -0.78926,-0.26533 -0.91361,-0.12996 -0.9082,0.12996 -0.77846,0.26533 -0.77845,0.38446 -0.65413,0.52523 -0.52439,0.65521 -0.38382,0.77975 -0.25409,0.90969 -0.13514,0.90971 v 32.13736 0.2545 l -0.13515,0.2545 -0.13515,0.14079 -0.11893,0.12996 -0.13515,0.25449 h -0.25408 l -0.13515,0.12996 h -0.2649 z" /><path
       sodipodi:nodetypes="cccccccccccccccccccccccccccccccccccccccccccccccccccccccccccccccccc"
       inkscape:connector-curvature="0"
       id="path42326"
       style="fill:#000000;stroke:#000000;stroke-width:0.24694552;stroke-linecap:butt;stroke-linejoin:round;stroke-miterlimit:10;stroke-dasharray:none;stroke-opacity:1"
       d="m 336.81516,364.51634 h -0.12583 l -0.24643,0.12606 -0.13108,0.12079 -0.11534,0.14179 -0.13108,0.12079 -0.13108,0.24683 v 0.12606 l -6.05059,39.6247 v 0.24685 0.26259 l 0.11536,0.24682 0.13107,0.12606 0.13109,0.26259 0.24642,0.12078 h 0.25692 0.24642 1.63586 0.13108 0.26215 l 0.11536,-0.12078 0.25691,-0.13655 0.12059,-0.12604 0.13108,-0.12606 v -0.24682 l 0.12583,-0.12604 3.02529,-20.31392 v 0 l 0.26217,-0.50941 0.24642,-0.24684 0.24643,-0.26259 h 0.50858 0.37227 l 0.26216,0.26259 0.24642,0.24684 0.26216,0.50941 v 0 l 3.02529,20.31392 0.12583,0.12604 v 0.24682 l 0.12059,0.12606 0.13108,0.12604 0.25691,0.13655 0.11535,0.12078 h 0.26215 0.24643 1.52051 0.24643 0.25691 l 0.24642,-0.12078 0.13108,-0.26259 0.13108,-0.12606 0.11535,-0.24682 v -0.26259 -0.24685 l -6.05058,-39.6247 v -0.12606 l -0.13109,-0.24683 -0.13107,-0.12079 -0.11535,-0.14179 -0.13108,-0.12079 -0.24643,-0.12606 h -0.12583 -0.26216 -1.88227 z" /><path
       sodipodi:nodetypes="ccccccccccccccccccccccccccccccccccccccccccccccccccccccccccccccccccccccccccccccccccccccccccccccccccccccccccccccc"
       inkscape:connector-curvature="0"
       id="path42794"
       style="fill:#000000;stroke:#000000;stroke-width:0.25540465;stroke-linecap:butt;stroke-linejoin:round;stroke-miterlimit:10;stroke-dasharray:none;stroke-opacity:1"
       d="m 368.61649,365.17237 v -0.12493 l -0.1193,-0.14665 -0.13557,-0.12493 -0.26571,-0.13036 -0.12473,-0.12493 h -0.13014 -0.2603 -1.82203 -0.27114 l -0.13557,0.12493 h -0.25488 l -0.13014,0.13036 -0.12472,0.27158 -0.13557,0.12493 -0.13015,0.25529 v 0.26073 39.41231 0.27158 l 0.13015,0.13036 0.13557,0.25529 0.12472,0.12493 0.13014,0.13037 0.25488,0.14121 h 0.13557 l 0.27114,0.13037 h 1.55632 l 0.26571,-0.13037 h 0.2603 l 0.13014,-0.14121 0.12473,-0.13037 0.13015,-0.12493 0.13556,-0.25529 0.13557,-0.13036 v -0.27158 -21.14013 0 -0.25528 l 0.1193,-0.12493 0.13557,-0.14666 0.25487,-0.12493 h 0.13556 l 0.26572,0.12493 0.12473,0.14666 0.13014,0.25528 v 0 l 2.7439,10.18442 c 0.0867,0.25265 0.26175,0.38158 0.38502,0.38565 h 0.13557 0.13557 c 0.12549,-0.007 0.33652,-0.13003 0.39044,-0.38565 l 2.73848,-10.18442 v 0 l 0.13557,-0.25528 0.1193,-0.14666 0.27114,-0.12493 h 0.13014 l 0.2603,0.12493 0.13014,0.14666 0.12472,0.12493 v 0.25528 0 21.14013 0.27158 l 0.13015,0.13036 0.13557,0.25529 0.13557,0.12493 0.11929,0.13037 0.27114,0.14121 h 0.11931 l 0.27113,0.13037 h 1.56717 l 0.25487,-0.13037 h 0.25487 l 0.13557,-0.14121 0.13557,-0.13037 0.13557,-0.12493 0.1193,-0.25529 0.13557,-0.13036 v -0.27158 -39.41231 -0.26073 l -0.13557,-0.25529 -0.1193,-0.12493 -0.13557,-0.27158 -0.13557,-0.13036 h -0.13557 l -0.25487,-0.12493 h -0.25487 -1.8383 -0.11931 -0.27114 l -0.11929,0.12493 -0.13557,0.13036 -0.26572,0.12493 v 0.14665 l -0.12472,0.12493 -0.13014,0.13037 -3.65493,13.70414 v 0 0.25529 l -0.13558,0.13035 h -0.25486 -0.13557 -0.13557 -0.25487 l -0.13015,-0.13035 v -0.25529 0 l -3.65492,-13.70414 z" /><path
       sodipodi:nodetypes="ccccccccccccccccccccccccccccccccccccccccccccccccccccccccccccccccccccccccccccccccccccccccccccccccccccccccccccccccccccccccccccccccc"
       inkscape:connector-curvature="0"
       id="path43110"
       style="fill:#000000;stroke:#000000;stroke-width:0.25703278;stroke-linecap:butt;stroke-linejoin:round;stroke-miterlimit:10;stroke-dasharray:none;stroke-opacity:1"
       d="m 408.76138,376.20289 -0.25705,0.26238 -0.27013,0.12573 h -0.39184 -0.39238 l -0.25649,-0.12573 -0.27068,-0.26238 -0.1348,-0.38264 -3.14942,-10.38052 v 0 -0.27332 l -0.13534,-0.12572 -0.1217,-0.13119 -0.13533,-0.1312 -0.1348,-0.12573 h -0.25704 -0.13534 l -0.1348,-0.13119 v 0 h -1.43309 v 0 l -0.40547,0.13119 h -0.2565 l -0.13534,0.12573 -0.25704,0.26239 -0.13479,0.26784 v 0.26239 0.25691 0.27333 0 l 5.64996,18.90796 v 0.65595 0 -0.12572 0 -0.14212 -0.13119 0 -0.1312 -0.12572 0.65595 l -5.64996,19.03916 v 0 0.25692 0.27332 0.25692 l 0.13479,0.25692 0.25704,0.14758 0.13534,0.25693 h 0.2565 l 0.40547,0.13118 v 0 h 1.43309 v 0 l 0.1348,-0.13118 h 0.13534 l 0.25704,-0.13119 h 0.1348 l 0.13533,-0.12574 0.1217,-0.14758 0.13534,-0.12573 v -0.25692 0 l 3.14942,-10.38053 0.1348,-0.3881 0.27068,-0.27331 0.25649,-0.12573 h 0.39238 0.39184 l 0.27013,0.12573 0.25705,0.27331 0.27014,0.3881 3.01406,10.38053 v 0 l 0.13535,0.25692 v 0.12573 l 0.13534,0.14758 0.1217,0.12574 h 0.13479 l 0.25705,0.13119 h 0.13533 l 0.27014,0.13118 v 0 h 1.43255 v 0 l 0.27068,-0.13118 h 0.25649 l 0.13535,-0.25693 0.27013,-0.14758 0.12169,-0.25692 v -0.25692 -0.27332 -0.25692 0 l -5.64995,-19.03916 v -0.65595 0.12572 0.1312 0 0.13119 0.14212 0 0.12572 0 -0.65595 l 5.64995,-18.90796 v 0 -0.27333 -0.25691 -0.26239 l -0.12169,-0.26784 -0.27013,-0.26239 -0.13535,-0.12573 h -0.25649 l -0.27068,-0.13119 v 0 h -1.43255 v 0 l -0.27014,0.13119 h -0.13533 -0.25705 l -0.13479,0.12573 -0.1217,0.1312 -0.13534,0.13119 v 0.12572 l -0.13535,0.27332 v 0 l -3.01406,10.38052 z" /><path
       sodipodi:nodetypes="cccccccccccccccccccccccccccccccccccccccccccccccccccccccccccccccccccccccccccccccccccccccc"
       inkscape:connector-curvature="0"
       id="path43112"
       style="fill:#000000;stroke:#000000;stroke-width:0.25540465;stroke-linecap:butt;stroke-linejoin:round;stroke-miterlimit:10;stroke-dasharray:none;stroke-opacity:1"
       d="m 200.08951,316.06136 v 0 0.13037 0 0 0 0.13035 0 0 0 0 l 6.00298,23.48661 v 0.2553 0.27158 l -0.13558,0.25529 -0.13556,0.25529 -0.13557,0.14665 -0.25486,0.12494 -0.25488,0.13035 h -0.26571 -1.43703 -0.25487 -0.13557 l -0.25487,-0.13035 -0.13557,-0.12494 -0.13556,-0.14665 -0.13016,-0.12493 v -0.13036 l -0.12473,-0.25529 -3.12892,-12.00946 v 0 l -0.13556,-0.39652 -0.26571,-0.25528 -0.39043,-0.26072 h -0.25488 -0.39043 l -0.40129,0.26072 -0.25487,0.25528 -0.13557,0.39652 v 0 l -3.12892,12.00946 v 0.25529 l -0.13558,0.13036 -0.11929,0.12493 -0.13557,0.14665 -0.13557,0.12494 -0.13015,0.13035 h -0.25486 -0.13558 -1.56174 -0.26572 l -0.25486,-0.13035 -0.13558,-0.12494 -0.25486,-0.14665 -0.13557,-0.25529 v -0.25529 l -0.13015,-0.27158 0.13015,-0.2553 6.00298,-23.48661 v 0 0 0 0 -0.13035 0 0 0 -0.13037 0 -15.39883 -0.14122 l 0.13556,-0.25529 v -0.25529 l 0.1193,-0.13036 0.27114,-0.14121 0.13558,-0.13038 h 0.25486 l 0.25487,-0.12493 h 1.57259 l 0.26571,0.12493 h 0.12473 l 0.26572,0.13038 0.1193,0.14121 0.13557,0.13036 0.13557,0.25529 v 0.25529 l 0.13557,0.14122 z" /><path
       sodipodi:nodetypes="ccccccccccccccccccccccccccccccccccccccccccccccccccccccccccccccccccccccccccccccccccccc"
       inkscape:connector-curvature="0"
       id="path43290"
       style="fill:#000000;stroke:#000000;stroke-width:0.26024908;stroke-linecap:butt;stroke-linejoin:round;stroke-miterlimit:10;stroke-dasharray:none;stroke-opacity:1"
       d="m 265.26627,402.41915 0.27353,-0.12729 h 0.13702 l 0.26025,-0.26013 0.13648,-0.13284 0.12322,-0.13283 v -0.27121 -0.26566 -35.49965 0 -0.27673 l 0.13703,-0.13284 0.13704,-0.26012 0.13648,-0.1273 0.12322,-0.13283 0.27353,-0.14391 0.13705,-0.13283 h 0.26026 v 0 h 1.60131 v 0 h 0.2597 l 0.13703,0.13283 0.26026,0.14391 0.13648,0.13283 0.13703,0.1273 0.12323,0.26012 v 0.13284 l 0.13648,0.27673 v 0 35.49964 0.26567 0.2712 l 0.13702,0.13284 0.12322,0.13283 0.13705,0.26014 h 0.27353 l 0.26024,0.12729 h 0.13648 4.11987 v 0 h 0.2597 l 0.13705,0.14944 h 0.27353 l 0.12322,0.26013 0.13704,0.13283 0.13704,0.1273 0.12267,0.27674 v 0.26013 0 1.59954 0 0.1273 l -0.12267,0.26013 -0.13704,0.13283 -0.13704,0.27673 -0.12322,0.1273 -0.27353,0.13283 h -0.13705 -0.2597 v 0 h -14.3566 v 0 h -0.27408 -0.2597 l -0.13705,-0.13283 -0.13702,-0.1273 -0.13649,-0.27673 -0.12321,-0.13283 -0.13702,-0.26013 v -0.1273 0 -1.59954 0 -0.26013 l 0.13702,-0.27674 0.12321,-0.1273 0.13649,-0.13283 0.13702,-0.13283 0.13705,-0.1273 0.2597,-0.14944 h 0.27408 v 0 h 3.9823 z" /><g
       id="g43486"
       transform="translate(465.06692,60.070688)"><g
         id="g43488"
         clip-path="url(#clipPath43492)"><g
           id="g43494"><g
             id="g43496"
             clip-path="url(#clipPath43500)" /></g></g></g></g></svg>